<?xml version="1.0" encoding="UTF-8" standalone="no"?>
<!-- Created with Inkscape (http://www.inkscape.org/) -->
<svg id="svg6727" xmlns:rdf="http://www.w3.org/1999/02/22-rdf-syntax-ns#" xmlns="http://www.w3.org/2000/svg" viewBox="0 0 95.531 95.5" height="95.5" width="95.531" version="1.1" xmlns:cc="http://creativecommons.org/ns#" xmlns:dc="http://purl.org/dc/elements/1.1/">
<metadata id="metadata6732">
<rdf:RDF>
<cc:Work rdf:about="">
<dc:format>image/svg+xml</dc:format>
<dc:type rdf:resource="http://purl.org/dc/dcmitype/StillImage"/>
<dc:title/>
</cc:Work>
</rdf:RDF>
</metadata>
<g id="layer1" transform="translate(-214.28125,-869)">
<path id="path432" stroke-linejoin="miter" d="m307.94,916.75c0,25.341-20.544,45.885-45.885,45.885s-45.885-20.544-45.885-45.885,20.544-45.885,45.885-45.885,45.885,20.544,45.885,45.885z" stroke="#2c4c70" stroke-linecap="butt" stroke-miterlimit="10" stroke-dasharray="none" stroke-width="3.75" fill="none"/>
<path id="path436" fill-rule="evenodd" fill="#2c4c70" d="m273.11,908.49c-0.0687-4.6938-1.5925-9.7375-3.9912-13.51-2.0588-3.2325-4.7062-5.455-7.4825-5.455-2.7712,0-5.42,2.2225-7.4775,5.4525-2.4025,3.7725-3.9238,8.8188-3.9938,13.512h10.914,1.5188,10.512zm-11.474-23.44c4.4612,0,8.3962,3.0725,11.238,7.5362,2.8425,4.4612,4.6388,10.405,4.7088,15.904h2.0962,1.325l0.1525,1.3212c0.004,0.0275,1.1288,9.5125-2.7925,14.599-2.3188,3.0075-5.385,4.4762-7.7212,5.5938-1.2525,0.6-2.2375,1.0738-2.4012,1.3825-0.2725,0.51875-0.27875,1.5438-0.15,2.5788,0.155,1.2338,0.42,2.3038,0.6125,2.4575,0.0888,0.0675,1.0325,0.2225,1.9988,0.38125,1.8738,0.3075,3.8062,0.62375,4.25,1.9575,0.37125,1.1212,0.1725,5.2275,0.1725,5.2412l-0.08,1.415h-1.4062-9.795-4.015-9.7938-1.4075l-0.0775-1.415c0-0.0137-0.20125-4.12,0.17125-5.2412,0.445-1.3338,2.3788-1.65,4.2512-1.9575,0.965-0.15875,1.9088-0.31375,1.9988-0.38125,0.195-0.15375,0.45625-1.2238,0.61-2.4575,0.13-1.035,0.12375-2.06-0.14875-2.5788-0.16375-0.30875-1.1475-0.7825-2.4025-1.3825-2.3338-1.1175-5.4025-2.5862-7.72-5.5938-3.92-5.0862-2.7962-14.571-2.7938-14.599l0.1525-1.3212h1.325,1.6988c0.0725-5.4988,1.8688-11.442,4.7112-15.904,2.84-4.4638,6.7725-7.5362,11.232-7.5362m-0.535,40.485c0.4425-0.006,0.89125-0.03,1.3425-0.0725,3.0062-0.28125,6.0375-1.3662,8.305-3.2075,2.2162-1.8,3.69-4.3375,3.6488-7.5588-0.004-0.28375-0.0175-0.5775-0.045-0.87375l1.4775-0.13375c0.0312,0.33375,0.0487,0.665,0.0525,0.99,0.0475,3.73-1.6475,6.6588-4.1975,8.7288-2.4988,2.0325-5.8238,3.2275-9.1062,3.5338-0.4875,0.0462-0.975,0.0725-1.46,0.0775l-0.0175-1.4838zm1.4962-14.064-1.5188,0-15.708,0c-0.13,2.5138-0.10375,8.0112,2.2912,11.12,1.8938,2.4575,4.5925,3.75,6.6488,4.735,1.7562,0.84,3.1375,1.5012,3.7525,2.6738,0.58875,1.12,0.67125,2.7825,0.4775,4.3275-0.24375,1.9238-0.9875,3.86-1.7438,4.445-0.67875,0.52875-1.9962,0.745-3.3475,0.965-1.0025,0.165-1.785-0.4225-1.9088-0.045-0.11625,0.34875-0.10625,1.6812-0.0738,2.7425h8.3612,4.015,8.3662c0.0275-1.0612,0.04-2.3938-0.0775-2.7425-0.12375-0.3775-0.9075,0.21-1.9088,0.045-1.3512-0.22-2.6688-0.43625-3.3475-0.965-0.755-0.585-1.5-2.5212-1.7412-4.445-0.19625-1.5462-0.11375-3.2075,0.47375-4.3275,0.6175-1.1725,1.9975-1.8338,3.7538-2.6738,2.0575-0.985,4.755-2.2775,6.6475-4.735,2.3988-3.1088,2.4238-8.6062,2.2912-11.12h-15.704z"/>
</g>
</svg>
