<?xml version="1.0" encoding="UTF-8" standalone="no"?>
<!-- Created with Inkscape (http://www.inkscape.org/) -->
<svg id="svg6727" xmlns:rdf="http://www.w3.org/1999/02/22-rdf-syntax-ns#" xmlns="http://www.w3.org/2000/svg" viewBox="0 0 95.531 95.531" height="95.531" width="95.531" version="1.1" xmlns:cc="http://creativecommons.org/ns#" xmlns:dc="http://purl.org/dc/elements/1.1/">
<metadata id="metadata6732">
<rdf:RDF>
<cc:Work rdf:about="">
<dc:format>image/svg+xml</dc:format>
<dc:type rdf:resource="http://purl.org/dc/dcmitype/StillImage"/>
<dc:title/>
</cc:Work>
</rdf:RDF>
</metadata>
<g id="layer1" transform="translate(-153.8125,-735.0625)">
<path id="path1654" stroke-linejoin="miter" d="m247.47,782.83c0,25.341-20.544,45.885-45.885,45.885s-45.885-20.544-45.885-45.885,20.544-45.885,45.885-45.885,45.885,20.544,45.885,45.885z" stroke="#2c4c70" stroke-linecap="butt" stroke-miterlimit="10" stroke-dasharray="none" stroke-width="3.75" fill="none"/>
<path id="path1658" fill-rule="evenodd" fill="#2c4c70" d="m181.97,777.52c-0.45625,0.1575-0.87375,0.3625-1.2438,0.61125-0.4775,0.31375-0.88125,0.69625-1.2162,1.13l-2.5112-3.9412-0.21-0.32875-0.38625,0.0687c-2.04,0.37125-3.3162-0.0738-3.9212-0.72875l-0.004,0.003c-0.25875-0.285-0.38375-0.6-0.375-0.88375,0.007-0.24625,0.12375-0.4725,0.3425-0.6225,0.43625-0.2975,1.2462-0.34,2.4262,0.16375l0.9225,0.3925-0.11-0.995c-0.19625-1.7462,0.2175-2.7825,0.82375-3.2412,0.29-0.22375,0.6325-0.3075,0.96125-0.27125,0.34,0.0387,0.66875,0.205,0.93125,0.48125,0.51125,0.54375,0.74875,1.5162,0.30375,2.8238l-0.0937,0.27125,0.16,0.24,3.2,4.8275zm37.86,23.684-16.738,0-9.8738,0-16.736,0c0.4825,1.29,1.2288,2.8712,2.1762,3.5312,1.7088,1.1912,4.03,0.87625,4.035,0.87375l0.1275-0.0163h0.0825,10.451,9.605,10.454,0.0763l0.13,0.0163c0.009,0.002,2.3275,0.3175,4.035-0.87375,0.95-0.66,1.6962-2.2412,2.175-3.5312m-35.52,7.4388,0,1.0475,28.589,0,0-1.0475-9.9388,0-9.605,0-9.045,0zm30.352,0.0338,0,1.895,0,0.88125-0.88125,0-30.352,0-0.88125,0,0-0.88125,0-1.9012c-1.1,0.05-3.6038-0.0163-5.6288-1.4288-2.6662-1.8588-3.9925-7.17-3.9962-7.1862l-0.48375-1.9012h1.9625,9.4725c-2.175-2.7138-4.015-6.27-4.9712-9.625-0.59625-2.1-0.85875-4.1425-0.655-5.8938,0.0937-0.81875,0.2875-1.575,0.59125-2.2525l-2.6188-4.1088c-2.2825,0.32625-3.805-0.29-4.5962-1.1438v-0.003c-0.48375-0.52-0.7075-1.1362-0.69-1.7138,0.0187-0.61625,0.30875-1.18,0.85125-1.5525,0.59625-0.40625,1.5-0.5675,2.6775-0.2525-0.006-1.7012,0.56375-2.8075,1.3338-3.3925,0.5425-0.415,1.1838-0.5725,1.8025-0.50375,0.6075,0.07,1.1988,0.36,1.6525,0.84375,0.7375,0.78375,1.1275,2.075,0.64875,3.7212l3.2825,4.9575c0.4975-0.0713,1.0338-0.0963,1.6112-0.0688,2.4075-0.0412,4.2388,0.87,5.6312,2.235,2.65-2.5338,5.8288-3.5062,8.9312-3.3012,2.2112,0.14625,4.375,0.895,6.2725,2.105,1.8875,1.2025,3.515,2.8688,4.6588,4.8525,1.705,2.9512,2.3388,6.6012,1.1862,10.481l2.865,0.95625,0.77625,0.26,0.025,0.8175,0.08,2.5812h6.6938,1.9612l-0.48375,1.9012c-0.002,0.0163-1.3288,5.3275-3.995,7.1862-1.5862,1.1062-3.4662,1.3875-4.7338,1.435m-22.225-18.072c-0.002-0.03-0.76875-11.271-7.6625-11.1h-0.0775c-1.1688-0.0525-2.0512,0.1625-2.68,0.58-0.84375,0.56125-1.2962,1.5612-1.44,2.8162-0.16875,1.4338,0.0637,3.1662,0.5825,4.985,1.0675,3.755,3.325,7.765,5.85,10.269h6.2088,9.8738,9.7875l-0.0525-1.7-3.2075-1.0688-1.1675-0.3875,0.4425-1.1438c1.385-3.5812,0.91-6.9612-0.6325-9.6325-0.95375-1.65-2.31-3.0375-3.8875-4.0425-1.57-1.0012-3.3525-1.62-5.165-1.7388-2.5362-0.16875-5.145,0.6525-7.3062,2.7938,2.5125,3.8938,2.8688,9.1825,2.8712,9.2075l-2.3375,0.1625z"/>
<path id="path1662" fill-rule="evenodd" fill="#2c4c70" d="m190.46,774.26c-1.3062-2.78-0.5025-3.9475,0.24125-5.0262,0.49625-0.71875,0.95375-1.3812-0.0625-3.0412l1.135-0.6925c1.4638,2.3938,0.77125,3.3988,0.02,4.4888-0.535,0.77625-1.115,1.6175-0.1325,3.71l-1.2012,0.56125z"/>
<path id="path1666" fill-rule="evenodd" fill="#2c4c70" d="m186.36,774.26c-0.85625-1.8238-0.32375-2.5962,0.1675-3.3112,0.25-0.36375,0.4825-0.69875-0.0463-1.5638l1.1362-0.6925c0.975,1.6,0.50875,2.2775,0.001,3.0112-0.28375,0.4125-0.59125,0.86-0.0575,1.995l-1.2013,0.56125z"/>
<path id="path1670" fill-rule="evenodd" fill="#2c4c70" d="m194.04,774.26c-0.85625-1.8238-0.32375-2.5962,0.1675-3.3112,0.25-0.36375,0.4825-0.69875-0.0463-1.5638l1.1362-0.6925c0.975,1.6,0.50875,2.2775,0.001,3.0112-0.28375,0.4125-0.59125,0.86-0.0575,1.995l-1.2012,0.56125z"/>
<path id="path1690" fill-rule="nonzero" fill="#FFF" d="m213.05,760.41c3.6938,0.9275,7.2325,3.0975,9.9612,6.3438l-1.0212,0.73,1.9075,2.675,1.0225-0.73c2.2138,3.6762,3.1012,7.765,2.755,11.602-0.3275,3.6962-1.805,7.1625-4.3475,9.785l-7.735-10.909-5.8-8.1625-7.4238-10.46c3.3238-1.5425,7.0812-1.795,10.681-0.875m8.7838,6.3388c-2.73-2.6112-5.5162-4.16-8.3662-4.8588-2.85-0.71-5.74-0.54875-8.655,0.26125l0.29625,1.0488c2.74-0.75625,5.4425-0.91125,8.1025-0.2525s5.29,2.1188,7.8738,4.5925l0.74875-0.79125z"/>
<path id="path1694" fill-rule="nonzero" fill="#2c4c70" d="m230.93,781.33c-0.445,5.0312-2.6912,9.725-6.6,13.008l0.65625,0.91875,0.79375,1.125-1.2638,0.5275-27.454-38.692,0.9175-1.0338,0.7925,1.125,0.6075,0.85c4.3925-2.5938,9.5638-3.1662,14.458-1.9275,4.4312,1.125,8.6562,3.7175,11.855,7.6175l2.1475-1.5125c-0.0488-0.3875-0.05-0.76375,0.0187-1.1425,0.15625-0.9125,0.655-1.7662,1.47-2.3475,0.815-0.57125,1.7975-0.77125,2.7088-0.615,0.9125,0.15625,1.7662,0.655,2.3488,1.47,0.57,0.81625,0.77,1.7975,0.61375,2.7088-0.155,0.9125-0.66625,1.7662-1.4812,2.3488-0.81625,0.57125-1.7862,0.77-2.6975,0.61375-0.3675-0.0687-0.73625-0.185-1.0725-0.36125l-2.1475,1.5125c2.6625,4.3425,3.7425,9.2138,3.3288,13.808m-7.0375-11.168-1.9075-2.675,1.0212-0.73125c-2.7288-3.2462-6.2675-5.4162-9.9612-6.3438-3.6-0.91875-7.3575-0.6675-10.681,0.875l7.4238,10.46,5.8,8.1638,7.735,10.908c2.5425-2.6225,4.02-6.0888,4.3475-9.785,0.34625-3.8375-0.54125-7.9262-2.755-11.602l-1.0225,0.73125zm7.2988-5.9462c0.355,0.0575,0.74125-0.015,1.0625-0.25,0.32125-0.22375,0.52125-0.56,0.59125-0.9275,0.0575-0.355-0.015-0.74125-0.25-1.0625-0.22375-0.32125-0.56-0.52125-0.9275-0.59125-0.355-0.0575-0.74125,0.015-1.0625,0.25-0.33375,0.22375-0.52125,0.56-0.59125,0.9275-0.0575,0.355,0.015,0.74125,0.25,1.0625,0.22375,0.32125,0.56,0.52125,0.9275,0.59125"/>
</g>
</svg>
