<?xml version="1.0" encoding="UTF-8" standalone="no"?>
<!-- Created with Inkscape (http://www.inkscape.org/) -->
<svg id="svg6727" xmlns:rdf="http://www.w3.org/1999/02/22-rdf-syntax-ns#" xmlns="http://www.w3.org/2000/svg" viewBox="0 0 95.5 95.531" height="95.531" width="95.5" version="1.1" xmlns:cc="http://creativecommons.org/ns#" xmlns:dc="http://purl.org/dc/elements/1.1/">
<metadata id="metadata6732">
<rdf:RDF>
<cc:Work rdf:about="">
<dc:format>image/svg+xml</dc:format>
<dc:type rdf:resource="http://purl.org/dc/dcmitype/StillImage"/>
<dc:title/>
</cc:Work>
</rdf:RDF>
</metadata>
<g id="layer1" transform="translate(-199.3125,-861.46875)">
<path id="path460" stroke-linejoin="miter" d="m292.95,909.23c0,25.341-20.544,45.885-45.885,45.885s-45.885-20.544-45.885-45.885,20.544-45.885,45.885-45.885,45.885,20.544,45.885,45.885z" stroke="#2c4c70" stroke-linecap="butt" stroke-miterlimit="10" stroke-dasharray="none" stroke-width="3.75" fill="none"/>
<path id="path462" stroke-linejoin="round" d="m269.38,931.06-42.356,0,0-10.662,42.356,0,0,10.662z" stroke="#2c4c70" stroke-linecap="round" stroke-miterlimit="10" stroke-dasharray="none" stroke-width="3.75" fill="none"/>
<path id="path466" stroke-linejoin="miter" d="m262.05,897.16c0,5.1125-6.4225,9.2562-14.345,9.2562s-14.345-4.1438-14.345-9.2562c0-5.1125,6.4225-9.2562,14.345-9.2562s14.345,4.1438,14.345,9.2562z" stroke="#2c4c70" stroke-linecap="butt" stroke-miterlimit="10" stroke-dasharray="none" stroke-width="3.75" fill="none"/>
<path id="path470" fill-rule="nonzero" fill="#2c4c70" d="m264.75,917.9c-2.9962-6.61-10.402-6.48-16.689-6.48-6.2888,0-13.692-0.1325-16.689,6.48-0.98875,2.1812,2.2412,4.09,3.2375,1.8925,3.0412-6.71,23.852-6.7275,26.902,0,0.99375,2.195,4.2275,0.29125,3.2375-1.8925"/>
<path id="path474" fill-rule="nonzero" fill="#2c4c70" d="m249.84,911.77c-0.0288-1.4538-0.0575-2.9062-0.0875-4.36-0.0475-2.41-3.7975-2.4175-3.75,0,0.03,1.4538,0.0588,2.9062,0.0875,4.36,0.0488,2.41,3.7988,2.4175,3.75,0"/>
<path id="path478" fill-rule="nonzero" fill="#2c4c70" d="m249.89,885.31c0.0212-1.7762,0.0412-3.5525,0.0625-5.3288,0.0287-2.4138-3.7212-2.4162-3.75,0-0.0213,1.7762-0.0413,3.5525-0.0625,5.3288-0.0288,2.4138,3.7212,2.415,3.75,0"/>
<path id="path482" fill-rule="nonzero" fill="#2c4c70" d="m242.04,897.13c0,2.5162-1.9962,4.555-4.4588,4.555-2.4625,0-4.4588-2.0388-4.4588-4.555s1.9962-4.555,4.4588-4.555c2.4625,0,4.4588,2.0388,4.4588,4.555"/>
</g>
</svg>
