<?xml version="1.0" encoding="UTF-8" standalone="no"?>
<!-- Created with Inkscape (http://www.inkscape.org/) -->
<svg id="svg6727" xmlns:rdf="http://www.w3.org/1999/02/22-rdf-syntax-ns#" xmlns="http://www.w3.org/2000/svg" height="95.531" width="95.5" version="1.1" xmlns:cc="http://creativecommons.org/ns#" xmlns:dc="http://purl.org/dc/elements/1.1/">
<metadata id="metadata6732">
<rdf:RDF>
<cc:Work rdf:about="">
<dc:format>image/svg+xml</dc:format>
<dc:type rdf:resource="http://purl.org/dc/dcmitype/StillImage"/>
<dc:title/>
</cc:Work>
</rdf:RDF>
</metadata>
<g id="layer1" transform="translate(-100.15625,-715.15625)">
<path id="path1546" stroke-linejoin="miter" d="m193.79,762.92c0,25.341-20.544,45.885-45.885,45.885s-45.885-20.544-45.885-45.885,20.544-45.885,45.885-45.885,45.885,20.544,45.885,45.885z" stroke="#2c4c70" stroke-linecap="butt" stroke-miterlimit="10" stroke-dasharray="none" stroke-width="3.75" fill="none"/>
<path id="path1550" fill-rule="nonzero" fill="#2c4c70" d="m152.55,763.7,0.005,0c0-0.7125,0.025-1.4262-0.0162-2.135-0.0113-0.205-0.16625-0.47875-0.33875-0.5825-1.2212-0.73-2.4575-1.435-3.7075-2.115-0.1725-0.095-0.48875-0.09-0.66375,0.006-1.2325,0.67-2.4538,1.3638-3.6575,2.085-0.185,0.11125-0.3675,0.40125-0.3725,0.61125-0.0325,1.405-0.03,2.81-0.001,4.215,0.004,0.1975,0.165,0.4725,0.335,0.575,1.2375,0.74,2.4912,1.4525,3.7538,2.1488,0.145,0.08,0.4125,0.08,0.5575-0.001,1.2612-0.69875,2.515-1.4125,3.7512-2.1538,0.17125-0.10375,0.3275-0.37375,0.33875-0.57625,0.0425-0.69,0.0162-1.385,0.0162-2.0775m-4.0988-29.669c1.05,0.34625,1.4212,1.1012,1.4075,2.1688-0.03,2.2512-0.009,4.5038-0.009,6.755v0.5775c0.25625-0.1425,0.43875-0.23625,0.61375-0.34125,2.0625-1.2338,4.1212-2.475,6.1888-3.7012,1.0438-0.62,2.1488-0.2725,2.5788,0.78625,0.30875,0.76375-0.035,1.5975-0.91,2.1325-1.2475,0.76125-2.5075,1.5038-3.76,2.255-1.435,0.86-2.8638,1.73-4.3075,2.575-0.30375,0.17875-0.415,0.38-0.41375,0.73125,0.0138,2.445,0.0138,4.8888-0.004,7.3338-0.002,0.34,0.12,0.515,0.405,0.6725,1.1775,0.6525,2.3488,1.315,3.505,2.0038,0.295,0.175,0.49875,0.15,0.77875-0.0137,2.1088-1.2312,4.22-2.4562,6.3462-3.6588,0.35625-0.20125,0.46375-0.4375,0.46875-0.82125,0.04-3.1175,0.0975-6.235,0.15-9.3525,0.0112-0.68125,0.2625-1.2438,0.87875-1.5738,0.5875-0.315,1.1838-0.29375,1.7438,0.0937,0.60375,0.4175,0.7475,1.0375,0.73625,1.7162-0.0362,2.3862-0.0762,4.7725-0.11375,7.1588-0.002,0.13375,0,0.2675,0,0.50875,0.2275-0.1225,0.40125-0.21,0.57125-0.3075,1.9975-1.1538,3.9925-2.3138,5.995-3.46,1.0588-0.60625,2.1538-0.255,2.5762,0.805,0.315,0.7875-0.0487,1.6188-0.96625,2.1525-1.9625,1.14-3.93,2.27-5.895,3.405-0.1825,0.105-0.36125,0.21625-0.625,0.37625,0.2525,0.14625,0.45375,0.2675,0.66,0.38125,2.0838,1.1588,4.17,2.3125,6.25,3.475,0.8025,0.4475,1.12,1.1462,0.9275,1.97-0.16375,0.70375-0.77375,1.2525-1.5362,1.2288-0.41875-0.0125-0.865-0.18-1.24-0.385-2.6988-1.4762-5.385-2.9738-8.0662-4.4825-0.31125-0.17625-0.5325-0.1675-0.835,0.009-2.0575,1.205-4.1225,2.3975-6.1938,3.5762-0.30125,0.17125-0.44375,0.35125-0.4375,0.715,0.0212,1.385,0.02,2.7712,0,4.1575-0.005,0.35875,0.12625,0.5475,0.43,0.72,2.09,1.1875,4.1738,2.3862,6.245,3.605,0.32625,0.1925,0.55875,0.19875,0.8875,0.0137,2.7138-1.5288,5.4338-3.0438,8.16-4.5512,1.0425-0.57625,2.1188-0.22625,2.5412,0.79375,0.32375,0.77875-0.002,1.625-0.88125,2.1325-1.2488,0.72125-2.5175,1.405-3.7775,2.1075-1.0062,0.56-2.0112,1.1225-3.08,1.72,2.0638,1.1938,4.0762,2.3462,6.0762,3.5188,0.3925,0.23,0.7925,0.48625,1.0988,0.81375,0.50375,0.53875,0.51375,1.32,0.1175,1.9162-0.425,0.6425-1.1375,0.9525-1.8462,0.67375-0.65625-0.2575-1.2725-0.625-1.8888-0.97625-1.6038-0.915-3.1962-1.8462-4.795-2.77-0.12875-0.0738-0.26375-0.13875-0.41375-0.21625,0,1.5662-0.008,3.095,0.001,4.6225,0.007,1.1362,0.0488,2.2712,0.05,3.4062,0,0.76375-0.5125,1.425-1.2188,1.64-0.675,0.20625-1.4812-0.065-1.8438-0.71875-0.185-0.335-0.27375-0.76125-0.28375-1.15-0.0713-3.04-0.12125-6.08-0.155-9.1212-0.005-0.51625-0.1675-0.82-0.63875-1.0825-2.0138-1.1238-4.005-2.2912-5.9975-3.4525-0.27125-0.1575-0.485-0.21875-0.78875-0.0375-1.2238,0.725-2.475,1.4062-3.6938,2.1375-0.1825,0.11-0.36125,0.4-0.36375,0.60875-0.025,2.445-0.004,4.8888-0.0275,7.3338-0.004,0.41,0.205,0.5725,0.49375,0.745,2.69,1.6088,5.38,3.2162,8.065,4.8325,1.0275,0.61875,1.2412,1.795,0.5,2.6475-0.54,0.62-1.3938,0.72-2.2588,0.2125-1.675-0.98375-3.335-1.9912-5.0012-2.9875-0.5575-0.33375-1.1162-0.665-1.7525-1.0438-0.0138,0.25875-0.0312,0.4375-0.0312,0.61625-0.001,2.3288,0.002,4.6575-0.002,6.9862-0.001,0.88-0.4825,1.5112-1.3075,1.7425-0.63625,0.17875-1.4212-0.11375-1.77-0.76-0.18125-0.3375-0.26625-0.765-0.27125-1.1538-0.0237-2.2512-0.0113-4.5038-0.0113-6.755v-0.63875c-0.24125,0.1375-0.405,0.225-0.56375,0.32125-2.0625,1.2338-4.1225,2.4712-6.1862,3.7038-0.60625,0.36125-1.24,0.41375-1.86,0.0525-0.58875-0.3425-0.8275-0.89625-0.79125-1.5588,0.0387-0.7075,0.49625-1.1362,1.0625-1.475,2.6075-1.5612,5.21-3.1288,7.8262-4.6725,0.3725-0.22,0.53-0.4425,0.52375-0.895-0.0288-2.4062-0.0212-4.8112-0.007-7.2175,0.001-0.33125-0.1025-0.51625-0.39-0.67625-1.21-0.67125-2.4138-1.3562-3.605-2.06-0.32-0.18875-0.5625-0.2-0.89125-0.006-2.04,1.1988-4.0875,2.38-6.145,3.5462-0.35,0.1975-0.46625,0.43375-0.47125,0.82125-0.04,3.1562-0.1,6.3125-0.15,9.4688-0.0113,0.695-0.30875,1.2388-0.91125,1.5588-0.585,0.30875-1.1925,0.26-1.7438-0.12875-0.5575-0.39375-0.71125-0.98-0.7025-1.62,0.0312-2.3088,0.0725-4.6188,0.10875-6.9275,0.004-0.2675,0-0.53625,0-0.9-0.23625,0.1275-0.41625,0.21875-0.59125,0.32-1.9988,1.1525-3.9938,2.31-5.995,3.4588-0.59,0.3375-1.2138,0.39125-1.8062,0.03-0.56875-0.3475-0.84375-0.89-0.795-1.56,0.0538-0.72875,0.5325-1.1612,1.1225-1.5012,1.8988-1.095,3.7975-2.19,5.695-3.2862,0.2-0.115,0.39375-0.2375,0.65125-0.3925-1.1325-0.6325-2.2188-1.24-3.305-1.8462-1.0575-0.59-2.105-1.2012-3.1788-1.7588-0.66375-0.34375-1.1725-0.7875-1.3825-1.5225v-0.46125c0.22625-0.3675,0.38375-0.81375,0.695-1.085,0.65375-0.57,1.3912-0.40125,2.09-0.0137,2.6538,1.475,5.3112,2.9475,7.9562,4.44,0.375,0.2125,0.6525,0.24625,1.0438,0.0138,2.0338-1.2062,4.0838-2.3875,6.1412-3.5525,0.34625-0.19625,0.4875-0.4075,0.48-0.80875-0.025-1.3662-0.0238-2.7338-0.001-4.1,0.006-0.36625-0.14375-0.5425-0.44125-0.7125-2.0212-1.1525-4.0388-2.31-6.04-3.495-0.41375-0.245-0.7225-0.255-1.1475-0.0125-2.6925,1.5275-5.4,3.0262-8.1075,4.5262-0.835,0.46375-1.6238,0.37125-2.2088-0.26375-0.1875-0.205-0.30875-0.4725-0.46-0.71125v-0.80875c0.34-0.73375,0.96625-1.1375,1.6525-1.5088,1.91-1.035,3.8-2.105,5.6975-3.1612,0.17875-0.10125,0.35375-0.21,0.57875-0.3425-0.225-0.13375-0.38875-0.23125-0.555-0.32625-1.9975-1.1538-3.9975-2.3012-5.9912-3.4625-0.9925-0.57875-1.2438-1.6875-0.6025-2.5538,0.5325-0.71625,1.435-0.84625,2.3762-0.30875,1.9525,1.1162,3.8962,2.2475,5.8438,3.3712,0.1725,0.0987,0.3525,0.1875,0.5875,0.3125,0-0.27,0.002-0.44125,0-0.61375-0.0375-2.4238-0.0863-4.8475-0.11-7.2712-0.01-1.1362,0.855-1.9188,1.9188-1.7838,0.875,0.11125,1.4238,0.84375,1.4425,1.9275,0.0512,3.0775,0.0962,6.1562,0.17125,9.2338,0.005,0.23875,0.1525,0.57875,0.34,0.69,2.1662,1.2838,4.3488,2.54,6.5412,3.7775,0.16625,0.0937,0.4825,0.0725,0.65875-0.0238,1.18-0.645,2.3362-1.335,3.5112-1.9888,0.30375-0.1675,0.4325-0.35625,0.43-0.7175-0.0175-2.4625-0.0162-4.925,0-7.3875,0.002-0.34-0.115-0.5225-0.4-0.67625-0.49-0.265-0.9625-0.56375-1.44-0.85-2.21-1.325-4.4212-2.645-6.6262-3.9775-1.0138-0.6125-1.2538-1.6725-0.60125-2.5462,0.54625-0.7325,1.4812-0.845,2.4238-0.28125,1.9962,1.1938,3.99,2.3925,5.9862,3.5875,0.19,0.11375,0.38625,0.2175,0.64875,0.36625v-0.7175c0-2.175,0.0275-4.3488-0.0125-6.5225-0.02-1.0888,0.33125-1.8638,1.4-2.23h0.5775z"/>
</g>
</svg>
