<?xml version="1.0" encoding="UTF-8" standalone="no"?>
<!-- Created with Inkscape (http://www.inkscape.org/) -->
<svg id="svg6727" xmlns:rdf="http://www.w3.org/1999/02/22-rdf-syntax-ns#" xmlns="http://www.w3.org/2000/svg" height="92.405" width="91.697" version="1.1" xmlns:cc="http://creativecommons.org/ns#" xmlns:dc="http://purl.org/dc/elements/1.1/">
<metadata id="metadata6732">
<rdf:RDF>
<cc:Work rdf:about="">
<dc:format>image/svg+xml</dc:format>
<dc:type rdf:resource="http://purl.org/dc/dcmitype/StillImage"/>
<dc:title/>
</cc:Work>
</rdf:RDF>
</metadata>
<g id="layer1" transform="translate(-411.29187,-389.02146)">
<path id="path14" stroke-linejoin="round" d="m476.5,432.31-0.07,37.798-16.942,6.14,0.0638-34.351" stroke="#2c4c70" stroke-linecap="round" stroke-miterlimit="10" stroke-dasharray="none" stroke-width="2.5" fill="none"/>
<path id="path18" stroke-linejoin="round" d="m459.58,425.87,0.0225-11.965,16.942-6.1375-0.015,8.2275" stroke="#2c4c70" stroke-linecap="round" stroke-miterlimit="10" stroke-dasharray="none" stroke-width="2.5" fill="none"/>
<path id="path34" stroke-linejoin="round" d="m459.61,413.9-10.856-14.292,16.944-6.1362,10.856,14.291-16.944,6.1375z" stroke="#2c4c70" stroke-linecap="round" stroke-miterlimit="10" stroke-dasharray="none" stroke-width="2.5" fill="none"/>
<path id="path50" stroke-linejoin="round" d="m452.15,404.07-14.296,5.1788,10.901-9.6438,16.942-6.1375" stroke="#2c4c70" stroke-linecap="round" stroke-miterlimit="10" stroke-dasharray="none" stroke-width="2.5" fill="none"/>
<path id="path54" stroke-linejoin="round" d="m437.8,438.74,0.055-29.491" stroke="#2c4c70" stroke-linecap="round" stroke-miterlimit="10" stroke-dasharray="none" stroke-width="2.5" fill="none"/>
<path id="path78" stroke-linejoin="round" d="m437.85,409.25,21.756,4.6488" stroke="#2c4c70" stroke-linecap="round" stroke-miterlimit="10" stroke-dasharray="none" stroke-width="2.5" fill="none"/>
<path id="path82" stroke-linejoin="round" d="m448.75,399.61,0-3.5875,16.944-5.755,0,3.205" stroke="#2c4c70" stroke-linecap="round" stroke-miterlimit="10" stroke-dasharray="none" stroke-width="2.5" fill="none"/>
<path id="path94" stroke-linejoin="round" d="m441.59,401.97c-0.5225,0.2425-1.0412,0.49875-1.5538,0.76625-0.47,0.245-0.93625,0.50125-1.3975,0.7675-15.71,9.0625-22.569,28.636-15.954,45.53,0.195,0.4975,0.59625,0.885,1.0988,1.0612,0.045,0.015,0.0888,0.0288,0.1325,0.04,0.4675,0.125,0.96875,0.0612,1.3912-0.1825l60.216-34.74c0.4625-0.26625,0.785-0.72125,0.885-1.2462,0.0987-0.525-0.035-1.0662-0.36875-1.4838-2.4062-3.0175-5.2225-5.6012-8.3638-7.6988m1.9225,60.235c0.13625-0.10625,0.2725-0.2125,0.4075-0.32,12.568-9.9162,17.564-27.336,11.598-42.575-0.195-0.49625-0.59625-0.88375-1.1-1.06-0.045-0.0163-0.0875-0.0288-0.1325-0.0412-0.4675-0.125-0.9675-0.0612-1.39,0.1825l-60.216,34.74c-0.4625,0.26625-0.78625,0.72125-0.885,1.2462-0.1,0.525,0.035,1.0675,0.36875,1.4838,1.9788,2.4812,4.235,4.67,6.7212,6.535m33.564-72.08c0.44875,0.12,0.89625,0.2475,1.3388,0.38125,0.17375,0.0513,0.34625,0.105,0.51875,0.16,10.515,3.3112,19.28,10.335,24.824,19.944,5.8662,10.17,7.4212,22.012,4.3788,33.354-3.0425,11.338-10.318,20.814-20.486,26.68-10.17,5.865-22.014,7.4212-33.352,4.3788-11.339-3.0412-20.814-10.318-26.681-20.488-5.8662-10.168-7.4212-22.012-4.3788-33.35,3.0412-11.341,10.316-20.815,20.486-26.681,4.7362-2.7325,9.835-4.53,15.076-5.3625" stroke="#2c4c70" stroke-linecap="round" stroke-miterlimit="10" stroke-dasharray="none" stroke-width="3.75" fill="none"/>
<g id="g56" transform="matrix(1.25,0,0,-1.25,437.76306,471.6317)">
<path id="path58" stroke-linejoin="round" d="m0,0,0.026,13.572,0.001,0.574" stroke="#2c4c70" stroke-linecap="round" stroke-miterlimit="10" stroke-dasharray="none" stroke-width="2" fill="none"/>
</g>
<path id="path74" stroke-linejoin="round" d="m476.46,470.14-16.944,6.14-21.756-4.6475" stroke="#2c4c70" stroke-linecap="round" stroke-miterlimit="10" stroke-dasharray="none" stroke-width="2.5" fill="none"/>
</g>
</svg>
