<?xml version="1.0" encoding="UTF-8" standalone="no"?>
<!-- Created with Inkscape (http://www.inkscape.org/) -->
<svg id="svg6727" xmlns:rdf="http://www.w3.org/1999/02/22-rdf-syntax-ns#" xmlns="http://www.w3.org/2000/svg" height="95.5" width="95.5" version="1.1" xmlns:cc="http://creativecommons.org/ns#" xmlns:dc="http://purl.org/dc/elements/1.1/">
<metadata id="metadata6732">
<rdf:RDF>
<cc:Work rdf:about="">
<dc:format>image/svg+xml</dc:format>
<dc:type rdf:resource="http://purl.org/dc/dcmitype/StillImage"/>
<dc:title/>
</cc:Work>
</rdf:RDF>
</metadata>
<g id="layer1" transform="translate(-225.125,-854.875)">
<path id="path440" stroke-linejoin="miter" d="m318.76,902.63c0,25.341-20.544,45.885-45.885,45.885s-45.885-20.544-45.885-45.885,20.544-45.885,45.885-45.885,45.885,20.544,45.885,45.885z" stroke="#2c4c70" stroke-linecap="butt" stroke-miterlimit="10" stroke-dasharray="none" stroke-width="3.75" fill="none"/>
<path id="path444" fill-rule="evenodd" fill="#2c4c70" d="m265.86,886.88c-1.5875-3.3838-0.60126-4.8162,0.31124-6.1388,0.46625-0.6775,0.89501-1.3012-0.0875-2.9038l2.1062-1.2812c1.8113,2.965,0.9475,4.22,0.006,5.5825-0.52499,0.765-1.095,1.5925-0.10624,3.7l-2.23,1.0412zm14.83,0c-1.5875-3.3838-0.6025-4.8162,0.3125-6.1388,0.465-0.6775,0.89376-1.3012-0.0888-2.9038l2.105-1.2812c1.8112,2.965,0.94749,4.22,0.006,5.5825-0.52375,0.765-1.0938,1.5925-0.10501,3.7l-2.23,1.0412zm-7.2262,0c-2.4225-5.1588-0.93124-7.3225,0.4475-9.3188,0.91875-1.3362,1.7663-2.565-0.115-5.6438l2.1062-1.2825c2.71,4.4412,1.43,6.3,0.035,8.325-0.9925,1.4388-2.065,2.9962-0.24374,6.8788l-2.23,1.0412z"/>
<path id="path448" fill-rule="evenodd" fill="#2c4c70" d="m285.32,902.93c1.9812,0.6925,3.8888,1.57,5.6325,2.6075-0.42625-1.0675-1.1962-2.49-2.4262-3.1488-1.11-0.59625-2.3738-0.015-3.2062,0.54125m-5.555-1.425c1.085,0.18,2.1688,0.41875,3.245,0.71l-0.0163-0.0175c0.01-0.008,3.3025-3.3088,6.4862-1.6025,2.7075,1.45,3.3375,3.9125,4.1088,6.6275,1.0888,0.765,1.105,0.99,1.9875,1.8888l0.125,0.1275c-0.67875-3.5338-2.32-8.5788-6.2338-10.228-4.2438-1.785-7.8762,0.76375-9.7025,2.4938m-9.495,0.035c0.93125-0.1975,1.91-0.32875,2.9188-0.3975-1.2738-1.3912-4.1088-3.97-7.8088-4.1625-3.2288-0.17125-5.83,2.6538-7.2388,4.6175,1.3-1.1512,3.8912-3.065,6.6338-2.92,2.8638,0.15,4.6975,1.9038,5.495,2.8625m-9.5525,0.59375c1.4588,0.23125,2.9575,0.775,4.4288,1.5138,0.8775-0.60875,1.86-1.1025,2.9312-1.4888-0.71375-0.64625-1.8462-1.3675-3.405-1.4512-1.4275-0.075-2.86,0.655-3.955,1.4262m32.018,11.421c-0.48375-1.2162-1.2488-2.325-2.2212-3.3162-2.01-2.0462-4.9212-3.585-7.975-4.445-3.0525-0.85875-6.2812-1.0488-8.915-0.39375-1.2638,0.31375-2.4,0.82125-3.3375,1.5412-0.98625-0.76-2.0325-1.4975-3.1112-2.1612,0.88625-0.4825,1.8825-0.855,2.9612-1.1225,3.6762-0.915,8.2588-0.63,12.64,0.60375,4.3838,1.235,8.5375,3.41,11.35,6.2738,0.91875,0.9375,1.6938,1.9475,2.2788,3.02h-3.67zm-6.9575,0,3.93,0c-0.3075-0.49625-0.68875-0.96875-1.1262-1.415-1.6675-1.6975-4.1475-2.9938-6.775-3.735-2.6275-0.73875-5.36-0.91125-7.5362-0.37-0.6625,0.16375-1.2675,0.39625-1.7925,0.69625,0.7875,0.68375,0.83875,0.7175,1.4762,1.3288l0.40875-0.0525c0.01-0.005,4.1088-1.605,7.6238,0.225,1.2188,0.63875,2.0862,1.2962,2.6912,1.8888,0.52125,0.51,0.87375,1.0088,1.1,1.4338m-8.3675,0,3.5712,0,2.255,0c-0.48875-0.46875-1.19-0.99625-2.195-1.52-2.0025-1.0475-4.3162-0.61-5.3725-0.3175,0.8575,0.86375,1.4688,1.53,1.7412,1.8375m-28.731,0c1.1775-2.7,4.5312-9.0975,10.106-9.4938,5.2738-0.37625,12.841,6.3925,15.846,9.4938h-2.4312c-1.62-1.7412-7.575-7.74-12.469-7.3912-4.6838,0.335-7.36,5.3038-8.2775,7.3912h-2.775zm4.6562,12.822c-1.2325,0.0813-4.65,0.1075-7.3925-1.805-3.3825-2.3562-5.1238-9.3138-5.13-9.3325l-0.4125-1.685h1.7338,4.3462c0.76125-1.9175,2.7112-8.1125,8.1538-10.335l0.55125-0.7425c0.0125-0.0225,4.0762-7.8562,10.301-7.53,6.435,0.33875,6.9625,3.9188,10.55,6.1638,0.685,0.008,0.5225,0.0188,1.22,0.0775,1.3788-1.585,6.5375-6.7688,12.995-4.05,6.8325,2.8762,7.8188,13.671,7.9338,15.431,0.17875,0.32375,0.3425,0.65125,0.48875,0.985h7.7862,1.7312l-0.41625,1.685c-0.002,0.0187-1.7438,6.9762-5.1262,9.3325-2.09,1.4562-4.5725,1.7888-6.1788,1.8288v3.2612,1.0188h-1.0212-41.092-1.0212v-1.0188-3.285zm14.458-0.0325-12.419,0,0,2.2962,39.054,0,0-2.2962-13.629,0-13.006,0zm-0.1825-10.07-23.658,0c0.63625,1.9038,1.8588,4.8938,3.5425,6.0675,2.5312,1.7638,5.9775,1.2962,5.9875,1.2938l0.0887-0.009h0.0713,14.15,13.006,14.15,0.0713l0.0888,0.009c0.01,0.002,3.4562,0.47,5.9875-1.2938,1.6838-1.1738,2.9062-4.1638,3.5425-6.0675h-23.658-13.371zm-3.9-2.72-5.6225,0c0.49875-0.8725,1.3462-1.7625,2.6875-1.585,0.96625,0.12625,1.6638,0.4475,2.1638,0.81625,0.345,0.25625,0.595,0.52875,0.77125,0.76875m-7.1362,0c0.59125-1.3338,1.8912-3.2562,4.3775-2.9288,1.225,0.16125,2.135,0.5825,2.7938,1.0725,0.8325,0.61375,1.2838,1.365,1.5038,1.8562h2.3612,0.7775c-2.2262-2.0975-5.7275-4.8788-8.4638-4.6825-2.675,0.19-4.5088,2.8312-5.4788,4.6825h2.1288z"/>
</g>
</svg>
