<?xml version="1.0" encoding="UTF-8" standalone="no"?>
<!-- Created with Inkscape (http://www.inkscape.org/) -->
<svg id="svg6727" xmlns:rdf="http://www.w3.org/1999/02/22-rdf-syntax-ns#" xmlns="http://www.w3.org/2000/svg" viewBox="0 0 89.836 96.636" height="96.636" width="89.836" version="1.1" xmlns:cc="http://creativecommons.org/ns#" xmlns:dc="http://purl.org/dc/elements/1.1/">
<metadata id="metadata6732">
<rdf:RDF>
<cc:Work rdf:about="">
<dc:format>image/svg+xml</dc:format>
<dc:type rdf:resource="http://purl.org/dc/dcmitype/StillImage"/>
<dc:title/>
</cc:Work>
</rdf:RDF>
</metadata>
<g id="layer1" stroke-linejoin="round" transform="translate(-330.08182,-484.03125)" stroke="#2c4c70" stroke-linecap="round" stroke-dasharray="none" stroke-miterlimit="10" fill="none">
<path id="path98" d="m373.81,562.47,0,12.531" stroke-width="2.5"/>
<path id="path102" d="m363.9,500.82,0,8.4825" stroke-width="2.5"/>
<path id="path106" d="m386.33,500.69,0,8.4825" stroke-width="2.5"/>
<path id="path110" d="m374.73,485.31,0,8.5925" stroke-width="2.5"/>
<path id="path114" d="m376.44,562.47,0,12.531" stroke-width="2.5"/>
<path id="path118" d="m369.85,507.27c0,4.2988,2.0362,8.0925,5.1525,10.421,3.1162-2.3288,5.1525-6.1225,5.1525-10.421,0-4.2988-2.0362-8.0925-5.1525-10.421-3.1162,2.3288-5.1525,6.1225-5.1525,10.421z" stroke-width="2.5"/>
<path id="path122" d="m364.5,522.72c1.9112,3.3112,5.165,5.325,8.5988,5.735,1.3638-3.1775,1.245-7.0038-0.665-10.316-1.9112-3.3088-5.1662-5.3225-8.5988-5.7312-1.3638,3.1775-1.245,7.0038,0.665,10.312z" stroke-width="2.5"/>
<path id="path126" d="m369.57,530.32c-2.0325-1.885-4.575-3.0412-7.2112-3.355-1.095,2.5525-1.34,5.475-0.60875,8.295" stroke-width="2.5"/>
<path id="path130" d="m371.68,544.9c0.56625,0.14875,1.1425,0.25875,1.7225,0.3275,0.2475-0.57875,0.4525-1.175,0.61125-1.785" stroke-width="2.5"/>
<path id="path134" d="m363.92,549.45c0.09,1.6325,0.55875,3.2775,1.44,4.805,1.7638,3.0525,4.7675,4.9138,7.935,5.2888,1.2588-2.9312,1.1488-6.4612-0.61375-9.5175-0.9325-1.6162-2.2138-2.8975-3.6825-3.8012" stroke-width="2.5"/>
<path id="path138" d="m376.58,527.17c-0.17375-0.59875-0.3-1.2162-0.3725-1.8388-0.2825-2.3875,0.18375-4.9125,1.4975-7.1912,1.9112-3.3088,5.1662-5.3238,8.6-5.7312,0.98375,2.2912,1.1975,4.92,0.52125,7.45-0.26125,0.9775-0.65375,1.94-1.1862,2.8625" stroke-width="2.5"/>
<path id="path142" d="m387.91,536.36c-0.2675,0.75125-0.60625,1.4912-1.02,2.2075-2.15,3.7238-5.8112,5.99-9.6738,6.45-0.2975-0.69625-0.5325-1.42-0.7025-2.1588" stroke-width="2.5"/>
<path id="path146" d="m384.87,554.26c-1.7638,3.0538-4.7662,4.9138-7.935,5.2888-1.2588-2.9312-1.1488-6.4612,0.61375-9.5175,1.7638-3.0538,4.7662-4.9112,7.935-5.2888,1.2588,2.9325,1.1488,6.4638-0.61375,9.5175z" stroke-width="2.5"/>
<path id="path150" d="m359.57,502.95c-0.9075,0.42875-1.8012,0.8975-2.6812,1.405-15.378,8.8712-22.091,28.031-15.615,44.568,0.19,0.4875,0.5825,0.865,1.075,1.0388,0.0437,0.0163,0.0863,0.0275,0.13,0.04,0.4575,0.1225,0.9475,0.06,1.3612-0.17875l58.944-34.008c0.4525-0.25875,0.76875-0.70375,0.86625-1.2188,0.0975-0.51375-0.035-1.0438-0.36125-1.4525-3.4212-4.29-7.6875-7.6862-12.551-10.026m-9.2675,68.316c4.0462-0.73375,7.98-2.1675,11.648-4.2838,15.379-8.87,22.091-28.03,15.618-44.57-0.19125-0.485-0.58375-0.865-1.0762-1.0362-0.0437-0.0137-0.0863-0.0287-0.13-0.0387-0.4575-0.1225-0.9475-0.0612-1.3612,0.17875l-58.944,34.004c-0.4525,0.2625-0.76875,0.7075-0.86625,1.2212-0.0962,0.5125,0.035,1.0438,0.36125,1.4512,4.8525,6.0862,11.405,10.37,18.949,12.394,0.5525,0.14875,1.1075,0.2825,1.6625,0.405m11.306-78.22c1.74,0.24625,5.7925,0.79875,7.5162,1.2612,11.099,2.9788,20.374,10.099,26.118,20.052,5.7412,9.955,7.2638,21.548,4.2862,32.649-2.9775,11.099-10.1,20.375-20.054,26.116-9.955,5.7412-21.549,7.2638-32.648,4.2862-11.099-2.9788-20.374-10.1-26.116-20.054-5.7438-9.9538-7.265-21.548-4.2875-32.646,2.9775-11.1,10.1-20.375,20.054-26.118,5.32-3.0688,11.108-4.9325,17.039-5.5475" stroke-width="3.75"/>
</g>
</svg>
