<?xml version="1.0" encoding="UTF-8" standalone="no"?>
<!-- Created with Inkscape (http://www.inkscape.org/) -->
<svg id="svg6727" xmlns:rdf="http://www.w3.org/1999/02/22-rdf-syntax-ns#" xmlns="http://www.w3.org/2000/svg" height="91.719" width="91.719" version="1.1" xmlns:cc="http://creativecommons.org/ns#" xmlns:dc="http://purl.org/dc/elements/1.1/">
<metadata id="metadata6732">
<rdf:RDF>
<cc:Work rdf:about="">
<dc:format>image/svg+xml</dc:format>
<dc:type rdf:resource="http://purl.org/dc/dcmitype/StillImage"/>
<dc:title/>
</cc:Work>
</rdf:RDF>
</metadata>
<g id="layer1" transform="translate(-207.90625,-902.40625)">
<path id="path254" stroke-linejoin="miter" d="m297.74,948.26c0,24.286-19.688,43.974-43.974,43.974s-43.975-19.688-43.975-43.974,19.689-43.974,43.975-43.974,43.974,19.688,43.974,43.974z" stroke="#2c4c70" stroke-linecap="butt" stroke-miterlimit="10" stroke-dasharray="none" stroke-width="3.75" fill="none"/>
<path id="path258" fill-rule="nonzero" fill="#2c4c70" d="m237.98,934.52c-0.0225,1.665-0.2125,3.3888-0.0263,5.07,0.24875,2.235,1.7325,3.5,3.9688,3.5138,1.2662,0.008,2.5775-0.155,3.7925-0.50375,1.3912-0.4,1.9362-1.3575,1.9025-2.8012-0.1475-6.4875-0.28375-12.974-0.49875-19.459-0.035-1.0862,0.16-1.9512,0.89875-2.735,0.44625-0.475,0.81125-1.0262,1.365-1.74,0.025,0.555,0.05,0.88,0.0525,1.205,0.0525,5.355,0.0975,10.709,0.1525,16.064,0.0238,2.26,0.96625,3.485,3.2238,3.615,2.2162,0.1275,4.4525-0.0838,6.6775-0.1975,0.33125-0.0163,0.64875-0.3125,0.97375-0.47875-0.20375-0.29375-0.36125-0.64125-0.62-0.8725-1.07-0.955-1.6925-0.96375-2.8575-0.165-1.3312-0.65-2.6212-1.28-3.9138-1.9112,0.9975-2.1725,3.5838-3.38,6.0212-2.7662,1.76,0.44375,3.1888,1.4588,4.55,2.5988,1.4775,1.2362,2.9662,2.4675,4.9275,2.855,0.85875,0.17,1.7362,0.2425,2.64,0.36375-1.0662,1.6125-2.1338,3.2262-3.24,4.8975-0.1075-0.0662-0.27-0.1425-0.4025-0.25375-2.0475-1.7225-4.3675-2.1425-6.9038-1.4088-1.3888,0.4025-2.7588,0.87-4.1362,1.3088-1.9912,0.635-3.9638,0.6975-5.8788-0.25875-0.71375-0.3575-1.1088-0.2275-1.4512,0.54-0.79,1.7688-1.835,3.3788-3.4162,4.565-2.2588,1.6938-4.7288,1.9162-7.3312,0.97125-1.54-0.56-2.5025-1.6838-2.7888-3.2988-0.5875-3.3138,0.5775-6.1475,2.3188-8.7175"/>
<path id="path262" fill-rule="nonzero" fill="#2c4c70" d="m232.68,916.9c1.1262,0.7425,2.2412,1.4762,3.4412,2.2662,0.004-0.0137-0.0125,0.14-0.08,0.26625-1.0475,1.9438-1.2338,4.03-1.2088,6.205,0.0425,3.6538-0.0812,7.3088-0.1125,10.964-0.05,5.835-3.8112,9.1825-9.615,8.495-0.9625-0.11375-1.9412-0.28375-2.8538-0.59875-2.0025-0.69-2.8075-2.0262-2.6512-4.1438,0.1075-1.4738,1.19-3.8888,2.19-4.885,0,0.555-0.0325,1.1125,0.006,1.665,0.16625,2.4112,1.35,3.7688,3.73,4.165,1.635,0.2725,3.27,0.17,4.8388-0.41875,1.6188-0.6075,2.2638-1.5825,2.2625-3.3075-0.004-4.285-0.03-8.57,0.0138-12.855,0.0137-1.3675-0.36875-2.5525-1.225-3.5725-0.38875-0.4625-0.40125-0.80625-0.1225-1.325,0.52875-0.98875,0.9675-2.0262,1.3862-2.92"/>
<path id="path270" fill-rule="nonzero" fill="#2c4c70" d="m232.47,963.73c11.766,12.186,30.126,10.905,40.336-0.2375,10.064-10.982,9.8562-28.535-2.2575-39.284,7.975,3.0975,16.984,13.271,16.618,26.882-0.3925,14.572-11.338,25.985-24.654,27.956-15.475,2.29-26.535-7.555-30.042-15.318"/>
<path id="path274" fill-rule="nonzero" fill="#2c4c70" d="m256.54,949.91c0.50375,1.4912,1.045,2.9725,1.4975,4.48,0.235,0.78125,0.60125,1.1012,1.4588,1.0562,1.5412-0.0788,3.0888-0.0225,4.74,0.1975-1.0488,0.79125-2.0962,1.585-3.1488,2.3712-1.49,1.1125-1.4888,1.11-0.945,2.87,0.38625,1.2475,0.765,2.4962,1.1438,3.7462,0.006,0.0213-0.0312,0.0575-0.0987,0.1725-1.2888-0.91625-2.5988-1.7938-3.845-2.7538-0.665-0.51125-1.1538-0.59875-1.8612-0.0263-1.2175,0.985-2.5338,1.8462-4.07,2.9462,0.53-1.7175,0.8725-3.1588,1.425-4.5138,0.44-1.0788,0.16875-1.6725-0.7575-2.2662-1.2-0.77125-2.3138-1.6775-3.465-2.5262,0.0238-0.0875,0.0487-0.17625,0.0725-0.26375,1.6012,0,3.2038-0.04,4.8038,0.0175,0.76125,0.0263,1.1038-0.265,1.315-0.96375,0.4575-1.5125,0.9825-3.005,1.4788-4.5062,0.0863-0.0125,0.17125-0.025,0.25625-0.0375"/>
</g>
</svg>
