<?xml version="1.0" encoding="UTF-8" standalone="no"?>
<!-- Created with Inkscape (http://www.inkscape.org/) -->
<svg id="svg6727" xmlns:rdf="http://www.w3.org/1999/02/22-rdf-syntax-ns#" xmlns="http://www.w3.org/2000/svg" viewBox="0 0 95.531 95.5" height="95.5" width="95.531" version="1.1" xmlns:cc="http://creativecommons.org/ns#" xmlns:dc="http://purl.org/dc/elements/1.1/">
<metadata id="metadata6732">
<rdf:RDF>
<cc:Work rdf:about="">
<dc:format>image/svg+xml</dc:format>
<dc:type rdf:resource="http://purl.org/dc/dcmitype/StillImage"/>
<dc:title/>
</cc:Work>
</rdf:RDF>
</metadata>
<g id="layer1" transform="translate(-67.1875,-758.84375)">
<path id="path1554" stroke-linejoin="miter" d="m160.84,806.59c0,25.341-20.544,45.885-45.885,45.885s-45.885-20.544-45.885-45.885,20.544-45.885,45.885-45.885,45.885,20.544,45.885,45.885z" stroke="#2c4c70" stroke-linecap="butt" stroke-miterlimit="10" stroke-dasharray="none" stroke-width="3.75" fill="none"/>
<path id="path1558" fill-rule="nonzero" fill="#2c4c70" d="m120.09,809.17c-2.01,8.0325-2.6788,8.53-10.701,10.972-1.7762,0.54125-4.1438,2.1425-4.46,3.6338-0.31875,1.5025,1.1575,3.975,2.5712,5.1562,7.1975,6.0162,19.212,2.265,22.046-6.6862,2.1138-6.6738-2.0625-12.626-9.4562-13.076m-21.064-13.485c-0.155,6.1938,0.55375,10.929,5.4887,14.922-3.35-15.195-0.3225-27.214,13.356-35.091,0.4125,0.59625,0.73875,0.86125,0.6975,1.0388-2.025,8.6138-0.6825,12.334,7.0138,17.385,8.355,5.4838,12.588,12.919,12.105,23.005-0.57375,11.978-10.61,21.838-22.474,21.94-12.212,0.105-22.524-9.55-23.179-21.681-0.4125-7.65,0.71125-14.804,6.9912-21.519"/>
</g>
</svg>
