<?xml version="1.0" encoding="UTF-8" standalone="no"?>
<!-- Created with Inkscape (http://www.inkscape.org/) -->
<svg id="svg6727" xmlns:rdf="http://www.w3.org/1999/02/22-rdf-syntax-ns#" xmlns="http://www.w3.org/2000/svg" height="95.5" width="95.531" version="1.1" xmlns:cc="http://creativecommons.org/ns#" xmlns:dc="http://purl.org/dc/elements/1.1/">
<metadata id="metadata6732">
<rdf:RDF>
<cc:Work rdf:about="">
<dc:format>image/svg+xml</dc:format>
<dc:type rdf:resource="http://purl.org/dc/dcmitype/StillImage"/>
<dc:title/>
</cc:Work>
</rdf:RDF>
</metadata>
<g id="layer1" transform="translate(-187.46875,-767.125)">
<path id="path1702" stroke-linejoin="round" d="m218.47,811.2-12.418,11.878,58.846,0-9.9875-11.878-36.441,0z" stroke="#2c4c70" stroke-linecap="round" stroke-miterlimit="10" stroke-dasharray="none" stroke-width="1.25" fill="none"/>
<path id="path1706" stroke-linejoin="miter" d="m281.13,814.88c0,25.341-20.544,45.885-45.885,45.885s-45.885-20.544-45.885-45.885,20.544-45.885,45.885-45.885,45.885,20.544,45.885,45.885z" stroke="#2c4c70" stroke-linecap="butt" stroke-miterlimit="10" stroke-dasharray="none" stroke-width="3.75" fill="none"/>
<path id="path1738" fill-rule="nonzero" fill="#2c4c70" d="m230.21,811.16c-0.72625-0.65875-1.8925-1.4025-3.4975-1.4875-1.4538-0.0838-2.9238,0.66-4.0562,1.4538,1.5038,0.23625,3.0425,0.79375,4.5462,1.555,0.895-0.62625,1.9088-1.1325,3.0075-1.5212m-10.19-0.575c1.335-1.1825,3.9888-3.1425,6.81-2.99,2.9238,0.15125,4.8162,1.9425,5.6275,2.9225,0.96375-0.2025,1.96-0.3375,2.9912-0.405-1.3012-1.42-4.2075-4.0725-8.01-4.275-3.3125-0.17-5.9825,2.7375-7.4188,4.7475m5.7462,10.359c0.84375,0.62625,1.3175,1.4025,1.5375,1.91h2.4325,0.795c-2.2812-2.1625-5.8812-5.0188-8.6862-4.8162-2.7375,0.2025-4.63,2.9062-5.61,4.8162h2.18c0.60875-1.3688,1.9262-3.3462,4.4775-3.0075,1.2675,0.16875,2.1975,0.59125,2.8738,1.0975m-17.71,1.91c0.7775-1.9775,2.7888-8.3312,8.365-10.612l0.5575-0.76c0.0163-0.0175,4.19-8.0612,10.579-7.7225,6.59,0.355,7.13,4.0212,10.815,6.32,0.70875,0.0163,0.54,0.0163,1.25,0.0838,1.42-1.6212,6.7088-6.945,13.332-4.1562,7.0138,2.9575,8.01,14.025,8.1288,15.834,0.185,0.32125,0.355,0.65875,0.50625,1.0138h0.795l-0.44,1.7238h-53.298l-0.4225-1.7238h-0.16875zm14.668-1.6388c-1.385-0.17-2.2475,0.7425-2.7538,1.6388h5.7625c-0.18625-0.25375-0.44-0.54125-0.795-0.79375-0.50625-0.3725-1.2338-0.71-2.2138-0.845m29.42-13.282c-4.3425-1.8425-8.0775,0.7775-9.9525,2.5512,1.115,0.18625,2.23,0.44,3.3288,0.7275l-0.0175-0.0175c0.0175,0,3.3975-3.3962,6.6588-1.6388,2.7712,1.4862,3.43,4.005,4.2075,6.7925,1.115,0.795,1.1325,1.0138,2.045,1.9438l0.135,0.135c-0.71-3.6325-2.3825-8.8038-6.405-10.494m-7.0975,6.9625c3.1262,0.87875,6.1175,2.45,8.18,4.545,0.99625,1.0138,1.7738,2.1638,2.2812,3.4138h3.7512c-0.59125-1.115-1.3862-2.1462-2.3325-3.1088-2.89-2.9412-7.1475-5.1712-11.642-6.4388-4.495-1.2512-9.1925-1.555-12.961-0.60875-1.115,0.27125-2.1288,0.65875-3.0425,1.1488,1.1162,0.67625,2.18,1.4375,3.195,2.2138,0.9625-0.7425,2.1288-1.25,3.43-1.5712,2.6862-0.67625,5.9988-0.49,9.1412,0.40625m2.1975,6.4888c0.52375,0.52375,0.895,1.03,1.115,1.47h4.0388c-0.32125-0.52375-0.71-0.9975-1.1662-1.4538-1.7062-1.74-4.2412-3.075-6.945-3.835-2.6862-0.76125-5.4925-0.93-7.7225-0.38875-0.67625,0.16875-1.3012,0.4225-1.8425,0.72625,0.81125,0.6925,0.8625,0.72625,1.5212,1.3512l0.40625-0.05c0.0162,0,4.2238-1.6388,7.8238,0.23625,1.25,0.65875,2.1462,1.335,2.7712,1.9438m3.9375-9.9875c-1.1325-0.6075-2.4338-0.0163-3.2788,0.5575,2.0275,0.71,3.9888,1.6062,5.7625,2.67-0.4225-1.0975-1.2162-2.5512-2.4838-3.2275m-5.425,11.458c-0.50625-0.49-1.2162-1.0312-2.2475-1.5712-2.0612-1.065-4.4275-0.625-5.5088-0.32125,0.87875,0.87875,1.5038,1.5712,1.775,1.8925h3.6662,2.315zm-8.8212,0c-3.0912-3.1938-10.849-10.122-16.256-9.75-5.7112,0.405-9.1588,6.9788-10.375,9.75h2.8562c0.94625-2.1462,3.6838-7.25,8.4825-7.5875,5.0188-0.355,11.136,5.7962,12.792,7.5875h2.5z"/>
<path id="path1742" fill-rule="nonzero" fill="#2c4c70" d="m220.04,804.81c-0.49125-8.1112-0.505-9.3675,1.0438-8.7962,1.5488,0.57125,3.4912-1.6,2.0062,3.8838l-1.485,5.4838"/>
<path id="path1746" fill-rule="nonzero" fill="#2c4c70" d="m219.58,806.6c-0.57125-0.64-7.915-6.4688-7.915-6.4688s-0.30375-4.9125,3.6188-0.57125c3.9212,4.3412,4.7562,6.1238,4.7562,6.1238s-6.5912-7.38-5.3125-9.3225c1.2788-1.9425,1.3488-3.77,2.685-1.1425s4.0775,6.7125,3.6212,8.9112"/>
<path id="path1750" fill-rule="nonzero" fill="#2c4c70" d="m237.03,809.61c1.3038-1.455,2.6062-2.9112,3.91-4.3662,0.10875-0.1225,0.2225-0.24125,0.33-0.365,0.26-0.3025,0.32375-0.6275-0.0263-0.9275-0.33-0.28375-0.6275-0.175-0.8825,0.1025-0.6125,0.66375-1.2262,1.3262-1.84,1.9875-2.2325,2.4088-4.465,4.8162-6.6975,7.2238-0.0888,0.0963-0.16625,0.24375-0.2775,0.27-0.17375,0.0413-0.4325,0.0675-0.54125-0.0287-0.10875-0.0963-0.13-0.36375-0.095-0.5325,0.0312-0.145,0.19125-0.25875,0.3-0.38,2.6938-3.01,5.3888-6.0188,8.0825-9.0275,0.12-0.13375,0.3175-0.2625,0.3325-0.415,0.0238-0.24625,0.006-0.58875-0.145-0.745-0.12125-0.125-0.47625-0.06-0.71375-0.02-0.1075,0.0175-0.18625,0.175-0.27375,0.2725-2.7288,3.0438-5.4562,6.0888-8.185,9.1338-0.0763,0.085-0.14,0.22-0.23625,0.24375-0.21375,0.0525-0.445,0.05-0.66875,0.07,0.006-0.22375-0.0788-0.5225,0.0337-0.66,0.81875-1.005,1.675-1.9788,2.525-2.96,1.9238-2.22,3.8525-4.4388,5.7762-6.6588,0.36-0.415,0.335-0.8575-0.0625-1.0662-0.38-0.19875-0.6375-0.01-0.87,0.2575-1.1012,1.2625-2.2038,2.5225-3.31,3.7788-1.5738,1.7875-3.15,3.5712-4.725,5.3562-0.10875,0.1225-0.19625,0.29125-0.335,0.355-0.19625,0.09-0.4325,0.10125-0.65125,0.1475-0.0137-0.22375-0.12375-0.5125-0.0263-0.66125,0.45625-0.70125,0.96625-1.3662,1.4625-2.04,2.2725-3.0775,4.5462-6.1525,6.8188-9.23,0.6975-0.945,1.6175-1.565,2.7838-1.8438,0.73-0.17625,1.44-0.43,2.18-0.55625,1.755-0.3,2.9725-1.2825,4.0188-2.64,3.225-4.1888,3.7138-5.52,6.9812-9.675,0.72-0.9175,1.4312-1.8412,2.1662-2.745,1.0612-1.3062,2.9412-1.4262,4.22-0.28625,1.3125,1.1712,1.4288,3.0488,0.21125,4.2575-2.6188,2.6038-5.265,5.1812-7.8975,7.7725-2.2688,2.235-1.7362,1.6625-3.9938,3.9088-0.65875,0.655-1.0112,1.4875-1.15,2.4175-0.15625,1.0375-0.31875,2.075-0.455,3.1162-0.155,1.185-0.6375,2.1862-1.5025,2.9838-2.8712,2.6512-5.7438,5.3012-8.615,7.9512-0.555,0.5125-1.1138,1.0212-1.6662,1.5362-0.2175,0.2025-0.46,0.31-0.70375,0.05-0.24125-0.2575-0.0988-0.48875,0.0937-0.7025,1.4162-1.575,2.8275-3.1538,4.24-4.7312,0.0263,0.0237,0.0538,0.0475,0.08,0.0712"/>
<path id="path1758" stroke-linejoin="miter" d="m217.95,809.72c0.12-0.4525,3.0575-4.8225,3.6012-5.0938,0.5425-0.27125,1.5375-1.6288,4.6138-1.3575,3.075,0.27125,5.5175,1.2675,8.1412,5.4288,2.6238,4.1612,8.2325,14.384,8.2325,14.384h-18.644l-5.945-13.361z" stroke="#2c4c70" stroke-linecap="butt" stroke-miterlimit="10" stroke-dasharray="none" stroke-width="2.5" fill="none"/>
<path id="path1762" fill-rule="nonzero" fill="#2c4c70" d="m237.93,814.29-4.2762,3.0338c-0.1975,0.14125-0.47625,0.0937-0.61625-0.105l-0.675-0.95c-0.14125-0.19875-0.0937-0.47625,0.105-0.6175l4.275-3.0338c0.19875-0.14125,0.4775-0.0937,0.6175,0.105l0.675,0.95c0.14125,0.19875,0.0937,0.47625-0.105,0.6175"/>
<path id="path1774" stroke-linejoin="miter" d="m226.05,817.62c0,4.3288-3.7288,7.8375-8.3275,7.8375-4.5988,0-8.3275-3.5088-8.3275-7.8375,0-4.3288,3.7288-7.8375,8.3275-7.8375,4.5988,0,8.3275,3.5088,8.3275,7.8375z" stroke="#2c4c70" stroke-linecap="butt" stroke-miterlimit="10" stroke-dasharray="none" stroke-width="2.5" fill="none"/>
<path id="path1778" fill-rule="nonzero" fill="#2c4c70" d="m216.42,815.08c0.63625,0.98375,0.86125,1.9712,0.5025,2.2038-0.36,0.2325-1.1675-0.37625-1.805-1.3612-0.63625-0.98375-0.86125-1.97-0.50125-2.2038,0.35875-0.2325,1.1662,0.3775,1.8038,1.3612"/>
<path id="path1782" fill-rule="nonzero" fill="#2c4c70" d="m219.88,815.5c-0.18375,1.1575-0.675,2.0425-1.0988,1.975-0.4225-0.0675-0.61625-1.06-0.43375-2.2175,0.18375-1.1588,0.67625-2.0425,1.0988-1.975,0.42375,0.0663,0.6175,1.06,0.43375,2.2175"/>
<path id="path1786" fill-rule="nonzero" fill="#2c4c70" d="m222.12,817.92c-0.89625,0.755-1.8475,1.1025-2.1238,0.77375-0.275-0.3275,0.2275-1.205,1.125-1.96,0.89625-0.755,1.8462-1.1025,2.1225-0.775,0.27625,0.32875-0.2275,1.2062-1.1238,1.9612"/>
<path id="path1790" fill-rule="nonzero" fill="#2c4c70" d="m217.59,821.47c-0.89625,0.755-1.8475,1.1025-2.1238,0.77375-0.275-0.3275,0.2275-1.205,1.125-1.96,0.89625-0.755,1.8462-1.1025,2.1225-0.775,0.27625,0.32875-0.2275,1.2062-1.1238,1.9612"/>
<path id="path1794" fill-rule="nonzero" fill="#2c4c70" d="m214.49,817.82c1.17,0.07,2.0988,0.4725,2.0725,0.9-0.025,0.42875-0.995,0.71875-2.165,0.64875s-2.0975-0.47375-2.0725-0.90125,0.995-0.7175,2.165-0.6475"/>
<path id="path1802" stroke-linejoin="round" d="m206.05,823.08,6.51,19.66,47.055,0,5.28-19.66-58.845,0z" stroke="#2c4c70" stroke-linecap="round" stroke-miterlimit="10" stroke-dasharray="none" stroke-width="2.5" fill="none"/>
<path id="path1810" stroke-linejoin="round" d="m212.56,843.25,23.931-18.174,23.124,18.174-47.055,0z" stroke="#2c4c70" stroke-linecap="round" stroke-miterlimit="10" stroke-dasharray="none" stroke-width="2.5" fill="none"/>
</g>
</svg>
