<?xml version="1.0" encoding="UTF-8" standalone="no"?>
<!-- Created with Inkscape (http://www.inkscape.org/) -->
<svg id="svg6727" xmlns:rdf="http://www.w3.org/1999/02/22-rdf-syntax-ns#" xmlns="http://www.w3.org/2000/svg" viewBox="0 0 91.719 91.719" height="91.719" width="91.719" version="1.1" xmlns:cc="http://creativecommons.org/ns#" xmlns:dc="http://purl.org/dc/elements/1.1/">
<metadata id="metadata6732">
<rdf:RDF>
<cc:Work rdf:about="">
<dc:format>image/svg+xml</dc:format>
<dc:type rdf:resource="http://purl.org/dc/dcmitype/StillImage"/>
<dc:title/>
</cc:Work>
</rdf:RDF>
</metadata>
<g id="layer1" transform="translate(-169.875,-865.6875)">
<path id="path392" stroke-linejoin="miter" d="m259.71,911.55c0,24.286-19.688,43.974-43.974,43.974s-43.975-19.688-43.975-43.974,19.689-43.974,43.975-43.974,43.974,19.688,43.974,43.974z" stroke="#2c4c70" stroke-linecap="butt" stroke-miterlimit="10" stroke-dasharray="none" stroke-width="3.75" fill="none"/>
<path id="path396" fill-rule="evenodd" fill="#2c4c70" d="m200.53,908.72,15.206-26.34,4.9325,8.5438,4.11,0-9.0425-15.662-17.261,29.9,2.055,3.5588z"/>
<path id="path400" fill-rule="evenodd" fill="#2c4c70" d="m221.49,925.09-30.414,0,4.9312-8.5425-2.055-3.56-9.0412,15.661,34.524,0,2.055-3.5588z"/>
<path id="path404" fill-rule="evenodd" fill="#2c4c70" d="m225.19,898.75,15.206,26.34-9.8638,0-2.055,3.5588,18.084,0-17.261-29.899-4.11,0z"/>
<path id="path408" fill-rule="evenodd" fill="#2c4c70" d="m237.52,908.72,9.0425-15.661-34.525,0-2.055,3.56,30.414,0-4.9312,8.5412,2.055,3.56z"/>
<path id="path412" fill-rule="evenodd" fill="#2c4c70" d="m206.28,922.96-15.208-26.339,9.865,0,2.0562-3.5612-18.085,0,17.26,29.9,4.1112,0z"/>
<path id="path416" fill-rule="evenodd" fill="#2c4c70" d="m230.94,912.99-15.208,26.34-4.9312-8.5438-4.1112,0,9.0425,15.662,17.262-29.9-2.055-3.5588z"/>
<path id="path420" fill-rule="evenodd" fill="#2c4c70" d="m209.84,915.41c0.94-0.025,0.5075-2.1512,0.5075-3.6512,0-1.3838,0.255-3.2338-0.1025-4.0575-0.25625-0.5925-0.8075-0.8675-1.2162-1.0138-0.63875-0.2275-2.2988,0-3.4488,0-0.4975,0.025-0.27375-0.6725-0.9125-0.5075-0.6975,0.39375-0.89875,1.9675-0.10125,2.2312,1.23,0.40875,2.825-0.12,3.955,0.1025,1.1838,0.61625,0.91375,2.5288,0.91375,4.3612,0,0.93625-0.38375,2.5575,0.405,2.535"/>
<path id="path424" fill-rule="evenodd" fill="#2c4c70" d="m213.07,914.92c0.0712,0.295,0.31875,0.51875,0.62,0.54625,1.0925,0.0963,2.4588,0.0875,3.55-0.005,0.30125-0.0263,0.55125-0.24375,0.6275-0.53625,0.3725-1.44,0.80875-2.9562,1.3962-4.0788,0.28625-0.5475,0.815-0.99125,1.015-1.42,0.84125-1.8088,0.007-3.4038-1.5225-3.0438-1.5625,0.36875-0.295,1.7512,0.41125,2.37,0.11375,0.1,0.16125,0.25875,0.10375,0.39875-0.65125,1.56-1.5575,2.865-2.3238,4.31-0.075,0.14-0.20375,0.2475-0.36125,0.27125-0.4625,0.0688-1.0412,0.0625-1.4462-0.055-0.1375-0.04-0.19625-0.1975-0.14125-0.33125,0.55375-1.3725,1.1888-2.665,1.31-4.47,0.01-0.14125,0.125-0.24875,0.265-0.2675,0.93125-0.11875,1.2062-1.3675,0.45875-1.82-1.1-0.665-2.5088-0.9575-2.2312,0.71,0.075,0.44875,0.42625,0.54625,0.68125,0.89375,0.0962,0.13125,0.1075,0.3025,0.065,0.46-0.4325,1.6162-0.7675,3.3312-1.6125,4.5338-0.065,0.0912-0.2025,0.0662-0.24125-0.0375-0.48125-1.2788-0.68-2.7962-0.53875-4.4912,0.0137-0.16,0.0675-0.33375,0.22-0.385,0.10875-0.0375,0.24125-0.0512,0.36875-0.0688,0.32-0.0437,0.495-0.37125,0.47375-0.69375-0.0738-1.1388-1.1288-1.4338-2.0538-1.3275-1.1862,0.1375-0.495,1.5975,0.10625,2.175,0.10625,0.10125,0.15625,0.2525,0.1075,0.39125-0.67625,1.9175,0.2375,4.0925,0.6925,5.9712"/>
<path id="path428" fill-rule="evenodd" fill="#2c4c70" d="m225.25,913.68c-1.295,0.36625-3.1112-0.60875-3.6512,0.10125-0.335,0.43875-0.59375,0.97375-0.305,1.5212,0.3725,0.70625,4.655,0.3075,5.4775-0.9125,0.91625-2.2375,1.1975-7.045-1.42-7.7088-0.67-0.16875-1.5875,0.16625-2.3325,0-0.405-0.09-0.515-0.67375-1.015-0.405-0.7675,0.25375-0.6,1.8325,0,2.1288,1.3,0.2325,2.5988-0.355,3.5512,0.1025,1.5262,0.73375,1.1275,4.7662-0.305,5.1725"/>
</g>
</svg>
