<?xml version="1.0" encoding="UTF-8" standalone="no"?>
<!-- Created with Inkscape (http://www.inkscape.org/) -->
<svg id="svg6727" xmlns:rdf="http://www.w3.org/1999/02/22-rdf-syntax-ns#" xmlns="http://www.w3.org/2000/svg" height="95.5" width="95.531" version="1.1" xmlns:cc="http://creativecommons.org/ns#" xmlns:dc="http://purl.org/dc/elements/1.1/">
<metadata id="metadata6732">
<rdf:RDF>
<cc:Work rdf:about="">
<dc:format>image/svg+xml</dc:format>
<dc:type rdf:resource="http://purl.org/dc/dcmitype/StillImage"/>
<dc:title/>
</cc:Work>
</rdf:RDF>
</metadata>
<g id="layer1" transform="translate(-175.09375,-868.53125)">
<path id="path452" stroke-linejoin="miter" d="m268.74,916.28c0,25.341-20.544,45.885-45.885,45.885s-45.885-20.544-45.885-45.885,20.544-45.885,45.885-45.885,45.885,20.544,45.885,45.885z" stroke="#2c4c70" stroke-linecap="butt" stroke-miterlimit="10" stroke-dasharray="none" stroke-width="3.75" fill="none"/>
<path id="path456" fill-rule="evenodd" fill="#2c4b70" d="m250.05,914.2-52.319,0-1.2938,0,0-1.2912c0-8.3638,7.2112-13.666,16.446-15.948,3.4825-0.85875,7.25-1.2888,11.009-1.2888,3.755,0,7.5225,0.43,11.009,1.2888,9.2312,2.2812,16.442,7.5838,16.442,15.948v1.2912h-1.2938zm-1.2925,14.911,0,2.595c0,0.7125-0.2925,1.3612-0.76375,1.8338-0.47,0.46875-1.1175,0.76125-1.8312,0.76125h-44.071c-0.71625,0-1.365-0.28875-1.835-0.76125h0.002c-0.47125-0.4725-0.7625-1.1212-0.7625-1.8338v-2.595h49.261zm-8.0812-21.736c0.61375,0,1.1138,0.49625,1.1138,1.1112,0,0.615-0.5,1.115-1.1138,1.115-0.615,0-1.1125-0.5-1.1125-1.115s0.4975-1.1112,1.1125-1.1112m-5.4212-1.1212c0.61625,0,1.1125,0.5,1.1125,1.115s-0.49625,1.1112-1.1125,1.1112c-0.615,0-1.1125-0.49625-1.1125-1.1112,0-0.615,0.4975-1.115,1.1125-1.115m-5.1188,2.1225c0.615,0,1.1125,0.5,1.1125,1.1125,0,0.615-0.4975,1.1138-1.1125,1.1138-0.61375,0-1.1138-0.49875-1.1138-1.1138,0-0.6125,0.5-1.1125,1.1138-1.1125m-3.83-2.71c0.615,0,1.1138,0.49875,1.1138,1.1138,0,0.6125-0.49875,1.1125-1.1138,1.1125-0.61625,0-1.1125-0.5-1.1125-1.1125,0-0.615,0.49625-1.1138,1.1125-1.1138m-3.5938,2.2388c0.615,0,1.1125,0.49875,1.1125,1.1112,0,0.615-0.4975,1.115-1.1125,1.115-0.61625,0-1.1125-0.5-1.1125-1.115,0-0.6125,0.49625-1.1112,1.1125-1.1112m-15.025-0.12c0.615,0,1.1138,0.5,1.1138,1.115s-0.49875,1.1125-1.1138,1.1125c-0.615,0-1.1112-0.4975-1.1112-1.1125s0.49625-1.115,1.1112-1.115m2.2975-2.7675c0.61625,0,1.1138,0.49875,1.1138,1.1138,0,0.6125-0.4975,1.1125-1.1138,1.1125-0.61375,0-1.1125-0.5-1.1125-1.1125,0-0.615,0.49875-1.1138,1.1125-1.1138m-7.8362,3.0638c0.61375,0,1.1112,0.49875,1.1112,1.115,0,0.615-0.4975,1.1112-1.1112,1.1112-0.615,0-1.1125-0.49625-1.1125-1.1112,0-0.61625,0.4975-1.115,1.1125-1.115m10.075,0.295c0.61375,0,1.1125,0.5,1.1125,1.1125,0,0.615-0.49875,1.1138-1.1125,1.1138-0.615,0-1.1125-0.49875-1.1125-1.1138,0-0.6125,0.4975-1.1125,1.1125-1.1125m32.88-1.06c0.6125,0,1.1112,0.49625,1.1112,1.1125,0,0.615-0.49875,1.1138-1.1112,1.1138-0.615,0-1.115-0.49875-1.115-1.1138,0-0.61625,0.5-1.1125,1.115-1.1125m1.92,19.206c0.78-0.80375,1.4462-1.6662,1.7238-2.5212,0.24-0.73375,0.16-1.5175-0.4725-2.3362-0.375-0.22-0.74875-0.47875-1.1425-0.74875-0.85-0.59125-1.86-1.2888-2.9288-1.45-0.38875-0.055-0.7725,0.30125-1.21,0.70625-1.165,1.0875-2.4938,2.3238-5.4025,2.3238-3.2675,0-4.355-0.52625-6.3862-1.5112-0.75875-0.3675-1.6738-0.81-2.8712-1.285-2.025-0.80375-5.2762,0.43625-7.9162,1.4412-1.8938,0.72125-3.535,1.3488-4.8888,1.2875-1.8038-0.0812-3.0075-0.84625-4.215-1.6138-0.80125-0.50875-1.605-1.02-2.3975-1.0388-0.76625-0.015-1.8138,0.42-2.9412,0.88625-1.855,0.77375-3.8762,1.615-6.3625,1.4138-0.1675-0.015-0.32875-0.0312-0.48875-0.0525-0.4075,0.68875-0.435,1.3525-0.2325,1.9775,0.27875,0.855,0.945,1.7175,1.7238,2.5212h46.409zm4.34-4.3162c1.6412-0.32875,2.7825-1.2962,2.7875-1.3l-2.365-3.0612s-0.68375,0.5675-1.4275,0.6c0,0-0.46875-0.32875-1.0275-0.715-1.1925-0.82625-2.61-1.8062-4.5675-2.0988-2.2188-0.3325-3.24,0.62125-4.4088,1.7088-0.63875,0.59375-1.37,1.2725-2.7638,1.2725-2.3988,0-3.2038-0.38625-4.7025-1.1138-0.78-0.3775-1.7162-0.83125-3.1288-1.3925-3.4388-1.3638-7.4562,0.1675-10.721,1.41-1.5,0.5725-2.8025,1.0688-3.3425,1.045-0.74875-0.0338-1.5262-0.5275-2.305-1.02-1.2475-0.7925-2.4962-1.5875-4.3988-1.63-1.59-0.0362-2.9938,0.54875-4.5025,1.1762-1.4388,0.59625-3.005,1.245-4.575,1.12-2.7975-0.225-4.0362-1.8362-4.04-1.8388l-3.0625,2.3638c0.002,0.005,1.26,1.6375,3.7412,2.6312-0.505,1.1625-0.4825,2.3175-0.11625,3.435,0.195,0.6,0.49,1.175,0.855,1.7238h-0.38375v1.295,3.8888c0,1.4288,0.5825,2.7225,1.52,3.6612h0.006c0.9375,0.9375,2.2312,1.5225,3.6562,1.5225h44.071c1.4262,0,2.7225-0.585,3.6625-1.5225,0.93625-0.93875,1.5188-2.2325,1.5188-3.6612v-3.8888-1.295h-0.99375c0.3625-0.54875,0.65875-1.1238,0.85375-1.7238,0.27625-0.84625,0.35875-1.715,0.16-2.5925m-47.54,1.195,40.414,0,0,1.295-40.414,0,0-1.295zm-4.7238-11.79,49.581,0c-0.73875-6.2075-6.7875-10.264-14.399-12.14-3.2662-0.8075-6.8225-1.21-10.39-1.21-3.5712,0-7.1275,0.4025-10.394,1.21-7.6088,1.8762-13.66,5.9325-14.399,12.14"/>
</g>
</svg>
