<?xml version="1.0" encoding="UTF-8" standalone="no"?>
<!-- Created with Inkscape (http://www.inkscape.org/) -->
<svg id="svg4806" xmlns:rdf="http://www.w3.org/1999/02/22-rdf-syntax-ns#" xmlns="http://www.w3.org/2000/svg" viewBox="0 0 91.719 91.719" height="91.719" width="91.719" version="1.1" xmlns:cc="http://creativecommons.org/ns#" xmlns:dc="http://purl.org/dc/elements/1.1/">
<metadata id="metadata4811">
<rdf:RDF>
<cc:Work rdf:about="">
<dc:format>image/svg+xml</dc:format>
<dc:type rdf:resource="http://purl.org/dc/dcmitype/StillImage"/>
<dc:title/>
</cc:Work>
</rdf:RDF>
</metadata>
<g id="layer1" transform="translate(-399.4375,-307.21875)" stroke="#2c4c70" stroke-miterlimit="10" stroke-dasharray="none" fill="none">
<path id="path154" stroke-linejoin="round" d="m436.91,362.09c1.9638,4.02,5.6638,7.9712,10.612,10.876,9.795,5.7562,20.78,5.2388,24.531-1.1488,3.755-6.39-1.145-16.234-10.938-21.991-0.74-0.43375-1.485-0.83125-2.2338-1.1912" stroke-linecap="round" stroke-width="2.5"/>
<path id="path158" stroke-linejoin="round" d="m456.05,345.53c-1.9712-3.9962-5.655-7.9188-10.575-10.806-9.795-5.7575-20.78-5.2412-24.534,1.15-3.7538,6.39,1.145,16.234,10.941,21.988,0.49625,0.2925,0.995,0.5675,1.4962,0.82625" stroke-linecap="round" stroke-width="2.5"/>
<path id="path162" stroke-linejoin="round" d="m452.18,352.3c5.2888,3.1375,13.971,3.4138,17.266,15.228" stroke-linecap="round" stroke-width="2.5"/>
<path id="path166" stroke-linejoin="round" d="m426.21,334.75s18.938-0.0962,25.58,13.411" stroke-linecap="round" stroke-width="2.5"/>
<path id="path170" stroke-linejoin="round" d="m441.84,358.83c2.6288,5.2025,5.94,9.9512,18.559,12.84" stroke-linecap="round" stroke-width="2.5"/>
<path id="path174" stroke-linejoin="round" d="m423.12,342.78c5.0512,8.77,10.831,9.4612,16.002,12.53" stroke-linecap="round" stroke-width="2.5"/>
<path id="path178" stroke-linejoin="round" d="m447.06,355.51c6.1288,7.8162,17.959,12.08,18.374,12.51" stroke-linecap="round" stroke-width="2.5"/>
<path id="path182" stroke-linejoin="round" d="m428.97,339.83c3.1312,1.1362,10.75,4.4862,16.671,11.321" stroke-linecap="round" stroke-width="2.5"/>
<path id="path186" stroke-linejoin="round" d="m455.57,351.66c-2.28,4.0338-12.388,8.6838-14.474,9.6162" stroke-linecap="round" stroke-width="2.5"/>
<path id="path190" stroke-linejoin="round" d="m460.42,353.3s-5.6662,8.7512-9.4888,10.276" stroke-linecap="round" stroke-width="2.5"/>
<path id="path194" stroke-linejoin="round" d="m466.36,357.61s-9.5275,12.765-15.136,13.71" stroke-linecap="round" stroke-width="2.5"/>
<path id="path198" stroke-linejoin="round" d="m433.76,333.7s-0.54,7.5912-4.03,10.02" stroke-linecap="round" stroke-width="2.5"/>
<path id="path202" stroke-linejoin="round" d="m441.53,335.68s-3.6288,11.128-13.044,16.849" stroke-linecap="round" stroke-width="2.5"/>
<path id="path206" stroke-linejoin="round" d="m448.95,341.1s-12.318,10.164-13.974,14.35" stroke-linecap="round" stroke-width="2.5"/>
<path id="path210" stroke-linejoin="round" d="m452.8,345.4s-8.705,5.3225-10.401,7.5062" stroke-linecap="round" stroke-width="2.5"/>
<path id="path254" stroke-linejoin="miter" d="m489.28,353.07c0,24.286-19.688,43.974-43.974,43.974s-43.975-19.688-43.975-43.974,19.689-43.974,43.975-43.974,43.974,19.688,43.974,43.974z" stroke-linecap="butt" stroke-width="3.75"/>
</g>
</svg>
