<?xml version="1.0" encoding="UTF-8" standalone="no"?>
<!-- Created with Inkscape (http://www.inkscape.org/) -->
<svg id="svg6727" xmlns:rdf="http://www.w3.org/1999/02/22-rdf-syntax-ns#" xmlns="http://www.w3.org/2000/svg" viewBox="0 0 90.85 90.851" height="90.851" width="90.85" version="1.1" xmlns:cc="http://creativecommons.org/ns#" xmlns:dc="http://purl.org/dc/elements/1.1/">
<metadata id="metadata6732">
<rdf:RDF>
<cc:Work rdf:about="">
<dc:format>image/svg+xml</dc:format>
<dc:type rdf:resource="http://purl.org/dc/dcmitype/StillImage"/>
<dc:title/>
</cc:Work>
</rdf:RDF>
</metadata>
<g id="layer1" transform="translate(-121.49627,-940.52643)" stroke="#2c4c70" stroke-miterlimit="10" stroke-dasharray="none" fill="none">
<path id="path154-9" stroke-linejoin="round" d="m160.5,997.46c1.9638,4.02,5.6638,7.9712,10.612,10.876,9.795,5.7563,20.78,5.2388,24.531-1.1487,3.755-6.39-1.145-16.234-10.938-21.991-0.74-0.43375-1.485-0.83125-2.2338-1.1912" stroke-linecap="round" stroke-width="2.5"/>
<path id="path158" stroke-linejoin="round" d="m173.64,974.36c-1.9712-3.9962-5.655-7.9188-10.575-10.806-9.795-5.7575-20.78-5.2412-24.534,1.15-3.7538,6.39,1.145,16.234,10.941,21.988,0.49625,0.2925,0.995,0.5675,1.4962,0.82625" stroke-linecap="round" stroke-width="2.5"/>
<path id="path162-8" stroke-linejoin="round" d="m175.77,987.67c5.2888,3.1375,13.971,3.4138,17.266,15.228" stroke-linecap="round" stroke-width="2.5"/>
<path id="path166-1" stroke-linejoin="round" d="m143.8,963.58s18.938-0.0963,25.58,13.411" stroke-linecap="round" stroke-width="2.5"/>
<path id="path170-1" stroke-linejoin="round" d="m165.43,994.2c2.6288,5.2025,5.94,9.9512,18.559,12.84" stroke-linecap="round" stroke-width="2.5"/>
<path id="path174-1" stroke-linejoin="round" d="m140.7,971.61c5.0512,8.77,10.831,9.4612,16.002,12.53" stroke-linecap="round" stroke-width="2.5"/>
<path id="path178" stroke-linejoin="round" d="m170.65,990.88c6.1288,7.8162,17.959,12.08,18.374,12.51" stroke-linecap="round" stroke-width="2.5"/>
<path id="path182" stroke-linejoin="round" d="m146.55,968.67c3.1312,1.1362,10.75,4.4862,16.671,11.321" stroke-linecap="round" stroke-width="2.5"/>
<path id="path186-7" stroke-linejoin="round" d="m179.16,987.03c-2.28,4.0338-12.388,8.6838-14.474,9.6162" stroke-linecap="round" stroke-width="2.5"/>
<path id="path194-2" stroke-linejoin="round" d="m189.95,992.98s-9.5275,12.765-15.136,13.71" stroke-linecap="round" stroke-width="2.5"/>
<path id="path202-6" stroke-linejoin="round" d="m159.12,964.51s-3.6288,11.128-13.044,16.849" stroke-linecap="round" stroke-width="2.5"/>
<path id="path206-5" stroke-linejoin="round" d="m166.54,969.93s-12.318,10.164-13.974,14.35" stroke-linecap="round" stroke-width="2.5"/>
<path id="path214-0" stroke-linejoin="miter" d="m133.81,970.36c-4.1425,8.8712-4.7662,19.325-1.0138,28.909,0.1925,0.49125,0.59,0.87629,1.0888,1.05,0.0438,0.014,0.0863,0.028,0.13,0.039,0.4625,0.1238,0.96,0.062,1.3775-0.1812l59.644-34.408c0.4575-0.265,0.7775-0.715,0.87625-1.235,0.0987-0.51875-0.035-1.055-0.365-1.4688-4.9112-6.1588-11.541-10.494-19.174-12.542-9.4438-2.535-19.308-1.2375-27.778,3.6475-1.06,0.61125-2.08,1.2725-3.0588,1.9788m54.99,44.32c3.6938-8.6262,4.1225-18.616,0.52375-27.807-0.1925-0.49375-0.59-0.87625-1.0888-1.0512-0.045-0.0163-0.0875-0.0288-0.13125-0.0412-0.4625-0.12375-0.95875-0.06-1.3775,0.18125l-59.642,34.411c-0.45875,0.2612-0.77875,0.7125-0.87625,1.2325-0.0987,0.52,0.035,1.0575,0.365,1.47,4.91,6.1562,11.54,10.491,19.174,12.54,9.4425,2.535,19.308,1.2375,27.775-3.6475,1.0562-0.61,2.0738-1.2675,3.0475-1.9688m-32.656,12.246c-11.231-3.0138-20.616-10.221-26.428-20.294-5.8112-10.071-7.3512-21.804-4.3375-33.034,3.0125-11.232,10.219-20.618,20.292-26.428,10.071-5.81,21.802-7.3488,33.034-4.3362,11.231,3.0138,20.616,10.218,26.428,20.29,5.81,10.074,7.35,21.804,4.3375,33.036-3.0138,11.23-10.22,20.615-20.292,26.425s-21.804,7.3525-33.034,4.34z" stroke-linecap="butt" stroke-width="3.75"/>
</g>
</svg>
