<?xml version="1.0" encoding="UTF-8" standalone="no"?>
<!-- Created with Inkscape (http://www.inkscape.org/) -->
<svg id="svg6727" xmlns:rdf="http://www.w3.org/1999/02/22-rdf-syntax-ns#" xmlns="http://www.w3.org/2000/svg" viewBox="0 0 95.531 95.531" height="95.531" width="95.531" version="1.1" xmlns:cc="http://creativecommons.org/ns#" xmlns:dc="http://purl.org/dc/elements/1.1/">
<metadata id="metadata6732">
<rdf:RDF>
<cc:Work rdf:about="">
<dc:format>image/svg+xml</dc:format>
<dc:type rdf:resource="http://purl.org/dc/dcmitype/StillImage"/>
<dc:title/>
</cc:Work>
</rdf:RDF>
</metadata>
<g id="layer1" transform="translate(-138.53125,-726.0625)">
<path id="path508" stroke-linejoin="miter" d="m232.19,773.83c0,25.341-20.544,45.885-45.885,45.885s-45.885-20.544-45.885-45.885,20.544-45.885,45.885-45.885,45.885,20.544,45.885,45.885z" stroke="#2c4c70" stroke-linecap="butt" stroke-miterlimit="10" stroke-dasharray="none" stroke-width="3.75" fill="none"/>
<path id="path516" stroke-linejoin="miter" d="m177.85,788.14c4.3625,3.015,12.181,3.3375,15.609,0.71875-2.895-1.9375-5.8025-3.8812-8.7562-5.8562-2.2325,1.6738-4.5312,3.3975-6.8525,5.1375zm0.19875-10.776c-1.445-1.785-2.51-3.6462-1.9862-5.985,0.50875-2.2775,1.955-3.8175,4.0412-4.7962-0.54-0.6525-1.3838-1.1625-2.2875-1.4038-3.8075-1.015-7.92,1.0175-9.2825,4.705-1.705,4.6138-0.55125,8.7462,2.3375,12.529,0.0175,0.0225,0.0588,0.0263,0.14,0.0587,2.32-1.6838,4.6625-3.3838,7.0375-5.1075zm-7.1338,17.051c5.845,3.62,12.171,5.64,19.184,4.725,4.73-0.6175,8.91-2.5938,12.7-5.615-0.4375-0.15625-0.77-0.26875-1.1-0.3925-2.5538-0.96625-4.9025-2.3312-7.2125-3.7638-0.4025-0.24875-0.69625-0.2825-1.1362-0.0625-1.855,0.9325-3.8138,1.5525-5.9,1.6725-3.3738,0.19375-6.4662-0.79375-9.4088-2.34-0.35875-0.1875-0.5725-0.175-0.87125,0.0987-2.0612,1.89-4.1388,3.7612-6.255,5.6775zm34.028-0.72125c0.0125-0.0388,0.025-0.0775,0.0375-0.11625,0.285-0.0288,0.57375-0.035,0.85375-0.0888,1.28-0.2475,2.3288-0.8425,2.82-2.1162,0.4875-1.2638,0.1475-2.4012-0.73125-3.3712-0.59875-0.66-1.235-1.2962-1.9175-1.8688-2.0762-1.7388-4.355-3.1838-6.7438-4.455-4.9788-2.6488-9.7012-5.6825-13.849-9.5225-1.68-1.555-3.1738-3.3088-4.7638-4.9612-0.12375-0.1275-0.37625-0.2775-0.5075-0.23375-2.38,0.80375-4.1738,3.7288-3.8512,6.22,0.18,1.3925,0.86625,2.5412,1.7125,3.6112,1.2038,1.52,2.6475,2.7912,4.2038,3.93,4.2488,3.1088,8.5438,6.1475,13.101,8.7988,2.1,1.2225,4.1862,2.4762,6.4838,3.2962,1.0238,0.36625,2.0988,0.58875,3.1512,0.8775zm-13.774-24.95c0.17375-0.14375,0.30125-0.25125,0.43-0.3575,1.4975-1.2338,3.1812-2.0875,5.0862-2.4875,3.4688-0.73,6.46,0.76,7.86,3.9225,0.68625,1.5488,0.78,3.1625,0.49,4.8112-0.425,2.4062-1.4938,4.5362-2.8125,6.5588-0.275,0.42125-0.5675,0.83125-0.87625,1.2825,2.4338,1.5238,4.8025,3.0925,6.7812,5.225,0.14125-0.1925,0.25-0.3375,0.35625-0.48625,1.9675-2.7525,3.165-5.87,4.2288-9.0425,1.0112-3.0162,1.2838-6.105,0.67625-9.2375-0.6575-3.385-2.025-6.4538-4.7438-8.6612-5.3012-4.3025-13.789-5.865-20.92,0.22375-0.15125,0.12875-0.33375,0.2225-0.47625,0.315,2.4738,3.5275,2.4738,3.5275,3.92,7.9338zm-1.1888,6.7312c0.79625-1.3938,1.2538-4.8862,0.81625-6.7512-1.0875-4.6212-3.3912-8.3512-7.8338-10.47-0.74625-0.35625-1.48-0.745-2.2512-1.0362-3.5362-1.3412-7.17-1.5038-10.79-0.5075-5.8438,1.61-10.378,7.1625-11.118,13.461-0.82625,7.0238,1.1512,13.211,5.6512,18.625,0.11375,0.13625,0.23625,0.265,0.38625,0.4325,1.4075-2.7012,3.5475-4.6688,5.8238-6.5288-0.1375-0.1875-0.2475-0.335-0.35625-0.48375-0.11-0.15-0.2225-0.29875-0.32625-0.4525-2.0012-2.9675-2.945-6.195-2.3712-9.785,0.65-4.0625,3.3225-6.7838,7.2475-7.2875,2.34-0.3,4.4388,0.2275,5.9875,2.175,2.56,3.2188,5.5588,5.975,8.8475,8.4275,0.09,0.0675,0.19,0.12125,0.28625,0.18125zm-13.862-19.658c0.74625,0.1175,1.5012,0.1975,2.2388,0.35875,3.1125,0.68375,5.8262,2.1775,8.295,4.1538,0.13,0.10375,0.2575,0.21,0.4075,0.3325,0.15125-0.13125,0.2875-0.2525,0.42625-0.37,3.3962-2.8488,7.2575-4.3975,11.739-4.0588,3.2438,0.245,6.2438,1.2775,8.8875,3.2,3.0362,2.2062,4.655,5.3262,5.4738,8.8962,0.79,3.445,0.48625,6.845-0.64625,10.174-1.1238,3.2988-2.4162,6.52-4.515,9.3512-0.0275,0.0387-0.04,0.0888,0.0613,0.0987,0.2225,0.66125,0.5625,1.3088,0.645,1.9875,0.23375,1.9338-1.1675,3.5775-3.2662,3.8425-0.72125,0.0913-1.475-0.007-2.2075-0.0888-0.34375-0.0375-0.585-0.006-0.865,0.21875-3.3875,2.7288-7.225,4.5238-11.49,5.355-4.6788,0.91125-9.2375,0.29-13.7-1.25-2.3862-0.82375-4.6388-1.9325-6.7562-3.3075-0.27875-0.18125-0.47625-0.17625-0.77625-0.0437-0.52,0.23125-1.0675,0.42375-1.6225,0.545-2.0938,0.45875-4.8712-1.9338-4.0125-4.7338,0.22375-0.72875,0.0662-1.165-0.39875-1.7188-3.285-3.9112-5.1575-8.4275-5.6525-13.512-0.015-0.16375-0.0613-0.325-0.0925-0.4875v-3.2412c0.0337-0.18125,0.0813-0.36,0.1-0.5425,0.16125-1.6525,0.475-3.275,1.1175-4.81,2.2162-5.2975,5.9088-8.905,11.679-10.098,0.525-0.1075,1.0588-0.16875,1.5888-0.25125h3.3425zm2.1312,21.778c-0.12625,0.0875-0.2225,0.15125-0.31625,0.21875-2.24,1.625-4.4988,3.225-6.7138,4.8825-1.9525,1.4625-3.7762,3.0812-5.1375,5.1262-0.5625,0.845-1.0312,1.79-1.345,2.7538-0.43625,1.3388,0.005,2.5112,1.0525,3.4675,1.0512,0.95875,2.2362,1.165,3.5138,0.6125,0.7375-0.31875,1.4675-0.7075,2.1038-1.1925,0.96375-0.73375,1.8425-1.5788,2.7575-2.3762,1.5388-1.3412,3.04-2.7275,4.625-4.01,1.6638-1.3488,3.4088-2.5975,5.1162-3.8912,0.18125-0.13875,0.35-0.29375,0.5625-0.4725-2.2662-1.5362-4.4125-3.11-6.2188-5.1188zm22.822,4.695c1.5838-2.175,2.895-4.4375,3.52-7.045,0.2725-1.1412,0.36-2.2925,0.2-3.4638-0.47625-3.49-3.36-5.9338-6.8675-5.725-2.3738,0.1425-4.4062,1.1575-6.2262,2.65-0.37875,0.31-0.5275,0.6375-0.49125,1.1262,0.11625,1.5775-0.0413,3.1325-0.49375,4.6538-0.1275,0.42625-0.425,0.93125-0.2975,1.2688,0.13375,0.35625,0.68,0.56125,1.0525,0.8225,3.04,2.1362,6.265,3.9625,9.6038,5.7125z" stroke="#2c4c70" stroke-linecap="butt" stroke-miterlimit="10" stroke-dasharray="none" stroke-width="2.5" fill="none"/>
<path id="path640" fill-rule="nonzero" fill="#2c4c70" d="m163.77,772.03c-0.0487,0.0538-0.12375,0.195-0.24125,0.25875-0.39625,0.2175-0.80625,0.41375-1.2162,0.60625-0.30875,0.14625-0.5075,0.015-0.64375-0.27375-0.13875-0.295-0.0975-0.51875,0.20875-0.6675,0.3775-0.185,0.75-0.3775,1.1325-0.55,0.4-0.18,0.78,0.0937,0.76,0.62625"/>
<path id="path644" fill-rule="nonzero" fill="#2c4c70" d="m179.8,762.42c-0.06-0.065-0.24-0.1775-0.29125-0.33375-0.14125-0.43-0.2325-0.87625-0.33625-1.3188-0.0813-0.34875,0.12625-0.48375,0.4225-0.55875,0.2925-0.0738,0.50125-0.005,0.58,0.3075,0.10375,0.4075,0.20875,0.81375,0.3,1.2238,0.1,0.4475-0.0837,0.67125-0.675,0.68"/>
<path id="path648" fill-rule="nonzero" fill="#2c4c70" d="m166.99,760.96c0.61,0.27125,1.1462,0.475,1.64,0.75625,0.095,0.0538,0.0788,0.43625,0,0.61625-0.0563,0.12625-0.33875,0.26875-0.465,0.22875-0.48-0.15125-0.95125-0.34375-1.3912-0.58625-0.11875-0.0663-0.1825-0.375-0.145-0.545,0.0375-0.1725,0.23125-0.31125,0.36125-0.47"/>
<path id="path652" fill-rule="nonzero" fill="#2c4c70" d="m185.71,764.17c-0.0625,0.0675-0.1475,0.23-0.27875,0.2875-0.43,0.18875-0.8775,0.34125-1.3175,0.50625-0.3225,0.12-0.47-0.07-0.56875-0.33-0.1-0.26-0.11125-0.505,0.2025-0.62875,0.4375-0.17375,0.87375-0.3525,1.3212-0.495,0.3375-0.10625,0.6375,0.18125,0.64125,0.66"/>
<path id="path656" fill-rule="nonzero" fill="#2c4c70" d="m165.08,783.61c-0.5625-0.0238-0.78625-0.34125-0.625-0.75,0.155-0.39,0.3325-0.7725,0.4925-1.1612,0.13625-0.33125,0.37-0.35,0.65875-0.22625,0.285,0.12125,0.4425,0.29625,0.29375,0.6275-0.17875,0.4-0.32875,0.8125-0.52375,1.2038-0.07,0.1425-0.23125,0.24125-0.29625,0.30625"/>
<path id="path660" fill-rule="nonzero" fill="#2c4c70" d="m174.35,759.6c-0.28125,0.61875-0.49875,1.1662-0.79125,1.6712-0.0525,0.0925-0.44,0.0688-0.61875-0.015-0.12375-0.0588-0.2525-0.34375-0.21125-0.47375,0.14625-0.46375,0.34-0.9175,0.57125-1.345,0.0675-0.12375,0.33625-0.22875,0.48125-0.1975,0.1975,0.0412,0.365,0.2225,0.56875,0.36"/>
<path id="path664" fill-rule="nonzero" fill="#2c4c70" d="m162.48,776.93c0.62125,0.27875,1.1712,0.4925,1.6775,0.7825,0.0913,0.0512,0.0675,0.44-0.0175,0.62-0.0575,0.1225-0.34125,0.25-0.4725,0.20875-0.465-0.14375-0.92-0.335-1.3488-0.56375-0.12375-0.065-0.22875-0.33625-0.1975-0.48125,0.0412-0.1975,0.2225-0.365,0.35875-0.56625"/>
<path id="path668" fill-rule="nonzero" fill="#2c4c70" d="m188.64,769.24c-0.0238,0.51875-0.44125,0.76625-0.82125,0.55375-0.3675-0.205-0.72125-0.4325-1.0825-0.64875-0.29125-0.17375-0.325-0.3925-0.15-0.67875,0.165-0.26875,0.3575-0.40125,0.66125-0.22,0.39125,0.2325,0.785,0.46,1.1638,0.71,0.11375,0.075,0.18,0.22,0.22875,0.28375"/>
<path id="path672" fill-rule="nonzero" fill="#2c4c70" d="m164.8,767.2c-0.155,0.10375-0.32125,0.2925-0.5075,0.3175-0.16625,0.0225-0.47-0.095-0.51625-0.2225-0.17375-0.47125-0.2975-0.9675-0.36625-1.4638-0.0188-0.13875,0.1925-0.405,0.3425-0.44375,0.17875-0.0463,0.54125,0.035,0.5875,0.1525,0.19125,0.49875,0.295,1.0312,0.46,1.66"/>
<path id="path676" fill-rule="nonzero" fill="#2c4c70" d="m209.18,770.39c0.31625-0.015,1.3638,1.3888,1.2562,1.685-0.14375,0.39875-0.65375,0.51375-0.9175,0.19125-0.2775-0.3375-0.5425-0.6875-0.78875-1.0475-0.235-0.3425,0.0287-0.80875,0.45-0.82875"/>
<path id="path680" fill-rule="nonzero" fill="#2c4c70" d="m193.33,763.11c-0.59875-0.33-1.1288-0.5875-1.61-0.91625-0.0862-0.0588-0.0312-0.44375,0.0688-0.6125,0.07-0.11875,0.36375-0.22125,0.4925-0.17,0.45,0.18125,0.8875,0.40875,1.2962,0.67125,0.1175,0.075,0.19875,0.3525,0.15625,0.495-0.0563,0.19125-0.25,0.34125-0.40375,0.5325"/>
<path id="path684" fill-rule="nonzero" fill="#2c4c70" d="m208.21,777.75c-0.0875-0.14375-0.24-0.31375-0.30125-0.5125-0.0875-0.2825,0.035-0.4975,0.35125-0.5475,0.4475-0.0712,0.89625-0.13875,1.345-0.20125,0.32125-0.045,0.4575,0.14125,0.50875,0.42625,0.05,0.2775,0.0162,0.5225-0.31125,0.5825-0.4775,0.0888-0.96125,0.15375-1.5925,0.2525"/>
<path id="path688" fill-rule="nonzero" fill="#2c4c70" d="m206.9,765.88c0.075-0.0587,0.20125-0.2175,0.36125-0.27125,0.41375-0.13875,0.84375-0.23,1.2662-0.34125,0.345-0.09,0.4975,0.0975,0.5775,0.3975,0.0825,0.31,0.007,0.5275-0.3325,0.61125-0.39125,0.0963-0.78125,0.205-1.1725,0.3-0.4575,0.11-0.7175-0.10125-0.7-0.69625"/>
<path id="path692" fill-rule="nonzero" fill="#2c4c70" d="m203.59,763.23c-0.14375-0.12625-0.3525-0.24-0.4425-0.415-0.0625-0.12-0.0125-0.3675,0.08-0.485,0.28-0.35625,0.5825-0.70375,0.925-0.99875,0.11625-0.1,0.43625-0.11625,0.555-0.0275,0.15125,0.115,0.3225,0.47125,0.26,0.55625-0.3375,0.45625-0.74375,0.8625-1.1325,1.28-0.04,0.0425-0.12125,0.0462-0.245,0.09"/>
<path id="path696" fill-rule="nonzero" fill="#2c4c70" d="m198.97,761.06c-0.18625,0.15375-0.325,0.34125-0.50375,0.395-0.1525,0.0462-0.44125-0.003-0.51375-0.11125-0.27625-0.42-0.5125-0.87125-0.7125-1.3338-0.0512-0.1175,0.035-0.395,0.1425-0.45875,0.1775-0.10375,0.56125-0.19125,0.61625-0.11375,0.34625,0.49,0.62625,1.0262,0.97125,1.6225"/>
<path id="path700" fill-rule="nonzero" fill="#2c4c70" d="m206.23,783.01c-0.07-0.0875-0.24625-0.22-0.30375-0.39375-0.13375-0.39625-0.21-0.8125-0.31125-1.2212-0.09-0.3625,0.0825-0.52375,0.41875-0.605,0.33625-0.0825,0.51375,0.0375,0.59,0.36,0.0937,0.3925,0.2025,0.7825,0.28625,1.1762,0.0962,0.445-0.0925,0.67125-0.68,0.68375"/>
<path id="path704" fill-rule="nonzero" fill="#2c4c70" d="m204.5,788.9c-0.0888,0.445-0.17,0.89-0.2675,1.3325-0.075,0.34875-0.325,0.3825-0.6225,0.32-0.2925-0.0613-0.44875-0.21375-0.3875-0.53,0.0875-0.445,0.16875-0.89125,0.265-1.3338,0.0662-0.30625,0.27375-0.39625,0.57-0.335,0.29875,0.0625,0.50375,0.1925,0.4425,0.54625"/>
<path id="path708" fill-rule="nonzero" fill="#2c4c70" d="m181.38,771.78c-0.28,0.61875-0.49875,1.1638-0.785,1.67-0.05,0.09-0.41,0.0825-0.57375,0.006-0.135-0.0637-0.30125-0.33125-0.26375-0.44875,0.15625-0.4925,0.36-0.97625,0.60375-1.4325,0.06-0.1125,0.34875-0.17875,0.505-0.145,0.17875,0.04,0.3275,0.215,0.51375,0.35"/>
<path id="path712" fill-rule="nonzero" fill="#2c4c70" d="m199.77,786.74c-0.15125,0.07-0.3,0.14625-0.455,0.20625-0.4225,0.165-0.84875,0.3225-1.2738,0.4825-0.33875,0.12625-0.49875-0.0512-0.60625-0.3425-0.10375-0.28-0.07-0.49875,0.23125-0.61625,0.4075-0.16,0.81375-0.3225,1.2275-0.46375,0.40375-0.1375,0.72875,0.13125,0.71125,0.56875l0.165,0.165"/>
<path id="path716" fill-rule="nonzero" fill="#2c4c70" d="m187.72,781.19c-0.12125-0.16375-0.3075-0.3125-0.33875-0.4875-0.03-0.17125,0.0438-0.47875,0.165-0.54,0.44875-0.225,0.9275-0.40375,1.4125-0.52875,0.13375-0.035,0.4075,0.145,0.47875,0.2925,0.0737,0.15375,0.0475,0.5175-0.0488,0.5675-0.50625,0.25875-1.0475,0.44625-1.6688,0.69625"/>
<path id="path720" fill-rule="nonzero" fill="#2c4c70" d="m194.29,783.82c-0.14125,0.105-0.28625,0.29125-0.4575,0.32-0.17625,0.0287-0.50125-0.0462-0.5475-0.16125-0.1975-0.49625-0.3475-1.0188-0.4425-1.5438-0.0213-0.11625,0.225-0.3625,0.3875-0.4075,0.16-0.0437,0.49,0.04,0.53875,0.155,0.20375,0.49375,0.3325,1.0188,0.52125,1.6375"/>
<path id="path724" fill-rule="nonzero" fill="#2c4c70" d="m184.37,774.93c0.0588,0.0675,0.23,0.185,0.28125,0.3425,0.14,0.43125,0.23375,0.8775,0.3375,1.3188,0.075,0.31875-0.1025,0.4575-0.385,0.53625-0.28125,0.08-0.515,0.0588-0.605-0.2575-0.13125-0.46875-0.25875-0.94125-0.35125-1.42-0.0613-0.3125,0.19625-0.52,0.7225-0.52"/>
<path id="path728" fill-rule="nonzero" fill="#2c4c70" d="m186.29,794.48c0.07,0.0575,0.22375,0.135,0.30625,0.26,0.24,0.365,0.44875,0.74875,0.67375,1.1238,0.18375,0.305,0.0575,0.4975-0.2125,0.66125-0.27875,0.1675-0.50625,0.155-0.6825-0.14125-0.21375-0.36125-0.43625-0.7175-0.63875-1.0862-0.215-0.38875,0.02-0.78875,0.55375-0.8175"/>
<path id="path732" fill-rule="nonzero" fill="#2c4c70" d="m192.3,794.8c-0.17875,0.11875-0.34125,0.29625-0.5325,0.33375-0.15,0.03-0.4375-0.0675-0.48625-0.1825-0.20125-0.4775-0.36625-0.97625-0.4725-1.4825-0.0263-0.12625,0.19-0.3875,0.345-0.4425,0.16-0.0562,0.5075,0.006,0.55625,0.11375,0.22625,0.50125,0.3775,1.0362,0.59,1.66"/>
<path id="path736" fill-rule="nonzero" fill="#2c4c70" d="m196.28,794.64c-0.15375-0.12875-0.3575-0.24-0.4625-0.41-0.065-0.105-0.0325-0.3425,0.0488-0.4525,0.2775-0.38,0.56875-0.75875,0.9125-1.075,0.1125-0.10375,0.4575-0.0937,0.59375,0.005,0.14,0.10125,0.275,0.45375,0.205,0.55875-0.2975,0.44375-0.66875,0.84-1.0225,1.245-0.0488,0.0562-0.14625,0.0712-0.275,0.12875"/>
<path id="path740" fill-rule="nonzero" fill="#2c4c70" d="m177.08,792.69c-0.0925,0.17125-0.13125,0.285-0.20375,0.37-0.28375,0.3325-0.57875,0.65625-0.86875,0.9825-0.2275,0.25625-0.45375,0.23375-0.69875,0.0175-0.2375-0.21125-0.32-0.43-0.0875-0.6925,0.30125-0.34,0.59125-0.6925,0.915-1.01,0.0975-0.095,0.33-0.16375,0.43625-0.11125,0.19375,0.095,0.33875,0.28875,0.5075,0.44375"/>
<path id="path744" fill-rule="nonzero" fill="#2c4c70" d="m180.99,795.37c-0.1925-0.165-0.4075-0.275-0.4975-0.44875-0.0625-0.12125-0.001-0.3625,0.0888-0.4925,0.23625-0.34625,0.52125-0.66,0.78125-0.99125,0.20875-0.26625,0.42625-0.2775,0.69-0.0688,0.2725,0.215,0.35,0.43875,0.11375,0.72625-0.2675,0.32625-0.5225,0.66125-0.7975,0.98-0.0913,0.10625-0.225,0.1775-0.37875,0.295"/>
<path id="path748" fill-rule="nonzero" fill="#2c4c70" d="m177.79,783.28c-0.53625-0.001-0.78625-0.33-0.63125-0.73375,0.15-0.39125,0.32625-0.77375,0.49-1.16,0.13125-0.3075,0.34-0.38125,0.65-0.24875,0.29,0.125,0.44875,0.30125,0.3175,0.62375-0.17125,0.42-0.34,0.84125-0.54,1.2475-0.0638,0.13-0.2225,0.2125-0.28625,0.27125"/>
<path id="path752" fill-rule="nonzero" fill="#2c4c70" d="m168.58,790.78c0.0725-0.4475,0.14375-0.89625,0.22-1.3438,0.0538-0.31625,0.2525-0.4075,0.55125-0.35625,0.29875,0.0512,0.52,0.1675,0.4675,0.52375-0.065,0.44875-0.13,0.8975-0.21125,1.345-0.0563,0.305-0.255,0.39875-0.55875,0.3525-0.3125-0.0475-0.50875-0.1675-0.46875-0.52125"/>
<path id="path756" fill-rule="nonzero" fill="#2c4c70" d="m174.21,785.28c0.1025,0.1375,0.29875,0.29125,0.3325,0.475,0.0312,0.16625-0.0713,0.48375-0.19125,0.52875-0.485,0.1825-0.995,0.31625-1.5075,0.39375-0.12875,0.02-0.3925-0.21-0.42625-0.3625-0.04-0.17875,0.0525-0.5275,0.1775-0.5775,0.48-0.19125,0.9975-0.2925,1.615-0.4575"/>
</g>
</svg>
