<?xml version="1.0" encoding="UTF-8" standalone="no"?>
<!-- Created with Inkscape (http://www.inkscape.org/) -->
<svg id="svg6727" xmlns:rdf="http://www.w3.org/1999/02/22-rdf-syntax-ns#" xmlns="http://www.w3.org/2000/svg" viewBox="0 0 95.531 95.531" height="95.531" width="95.531" version="1.1" xmlns:cc="http://creativecommons.org/ns#" xmlns:dc="http://purl.org/dc/elements/1.1/">
<metadata id="metadata6732">
<rdf:RDF>
<cc:Work rdf:about="">
<dc:format>image/svg+xml</dc:format>
<dc:type rdf:resource="http://purl.org/dc/dcmitype/StillImage"/>
<dc:title/>
</cc:Work>
</rdf:RDF>
</metadata>
<g id="layer1" transform="translate(-183.625,-873.625)">
<path id="path486" stroke-linejoin="miter" d="m277.27,921.39c0,25.341-20.544,45.885-45.885,45.885s-45.885-20.544-45.885-45.885,20.544-45.885,45.885-45.885,45.885,20.544,45.885,45.885z" stroke="#2c4c70" stroke-linecap="butt" stroke-miterlimit="10" stroke-dasharray="none" stroke-width="3.75" fill="none"/>
<path id="path490" fill-rule="evenodd" fill="#2c4b70" d="m217.47,921.03,0.0813,1.2188c0.0537-0.005,17.8-1.1988,22.926-1.5988,4.7012-0.3675,8.9575-1.5412,8.9688-1.5438l-0.33125-1.1738c-0.01,0.004-4.145,1.1425-8.7288,1.5012-4.1612,0.3275-22.862,1.59-22.916,1.5962m-8.155,13.831,42.468-2.2088-0.0987-10.139c-2.0875,0.48-4.1812,0.98375-4.5225,1.8838-0.82,2.1538-2.4038,2.82-4.3162,2.6425-1.5712-0.14625-3.3262-0.93125-4.975-1.875v-0.002c-1.2425-0.7075-2.2762-0.89125-3.2275-0.71125-1.0112,0.19625-2.02,0.8025-3.115,1.64-0.47625,0.365-1.0662,0.77625-1.7238,1.1925-1.415,0.895-3.1488,1.7862-4.7625,2.2025-1.9225,0.495-3.7025,0.33375-4.8188-1.1262-0.0613-0.0812-0.1225-0.17-0.18625-0.2675-0.7325-1.1625-1.61-1.8925-2.6025-2.3588-1.0475-0.49125-2.265-0.71875-3.5938-0.85l-0.97125-0.0837c-1.11-0.0975-2.4825-0.21875-3.7988-0.44l0.245,10.501zm42.512,2.335-42.411,2.2088,0.0863,3.6112,42.364-1.855-0.0387-3.965zm-42.436,0.99,42.422-2.2088-0.0187-2.105-42.454,2.2075,0.05,2.1062zm14.194-27.994c0.0737-1.45,0.45-3.055,1.1662-4.7775,0.49875-1.195,1.09-2.3688,1.775-3.435,1.145-1.7888,2.5538-3.285,4.2275-4.135,1.4238-0.725,3.005-0.9875,4.735-0.5725-0.18125-0.785-0.19625-1.5625-0.045-2.3238,0.20125-1.0212,0.69125-2.01,1.4612-2.9675l0.3925-0.48875,0.47875,0.4075c0.955,0.815,1.6888,1.76,2.24,2.81,0.36,0.6875,0.63875,1.42,0.84875,2.1912,0.52375-0.5,1.0875-0.86625,1.69-1.0988,0.94125-0.3625,1.96-0.405,3.0462-0.14375l0.55125,0.1325-0.0913,0.5575c-0.14375,0.87125-0.38375,1.7262-0.82375,2.5425-0.26,0.48-0.5875,0.94625-1.0038,1.3888,0.84125,0.19,1.5938,0.5175,2.2638,0.975h0.001c1.0062,0.6925,1.8075,1.6788,2.4188,2.9525l0.25375,0.53-0.5225,0.27c-0.74625,0.39125-1.4438,0.64375-2.1,0.77625,4.5625,3.8738,12.031,10.682,11.39,13.25-0.3025,1.22-1.3012,1.95-2.615,2.4738l0.21,21.389,0.0175,1.7625-1.765,0.0775-45.986,2.0125-1.8625,0.0813-0.0425-1.87-0.505-21.814c-1.2775-0.88-1.71-2.0525-0.64-3.64,1.0638-1.5762,9.9925-5.6075,18.835-9.3138m21.058-2.865c4.2075,3.4738,11.308,9.6075,10.93,11.115-0.18,0.72125-2.195,1.1838-4.2625,1.6588-2.7712,0.635-5.6162,1.2875-6.43,3.425-0.34,0.89125-1.005,1.1675-1.8138,1.0925-1.1488-0.11-2.585-0.77125-3.985-1.57h-0.004c-1.8025-1.0325-3.3775-1.28-4.8938-0.9925-1.45,0.27625-2.7625,1.0475-4.135,2.0962-0.43375,0.33125-0.96125,0.705-1.5425,1.07-1.2475,0.7875-2.7412,1.5675-4.065,1.9062-1.0162,0.26125-1.8875,0.2675-2.2825-0.25-0.0225-0.0287-0.045-0.06-0.06-0.0837-1.0075-1.595-2.235-2.6075-3.6338-3.2638-1.3475-0.6325-2.815-0.91625-4.3862-1.0725-0.56375-0.0575-0.76625-0.0712-0.99625-0.095-2.0625-0.175-5.1475-0.445-6.29-1.2188-0.0837-0.055-0.1075-0.14375-0.0175-0.2725,0.81625-1.2112,8.7825-4.7575,17.02-8.1788,0.03,0.12625,0.0625,0.25,0.0988,0.37125,0.2875,0.98625,0.7625,1.8488,1.4038,2.5675,0.645,0.71875,1.4475,1.285,2.3938,1.68,1.9888,0.8275,4.615,0.89125,7.6975-0.0125,1.2512-0.3625,2.4812-0.8225,3.6125-1.38,1.8975-0.94,3.5412-2.1712,4.575-3.7462,0.91125-1.3862,1.3438-2.9938,1.0662-4.8462m-1.0075-3.0075c-0.49875-0.9575-1.3225-2.0762-2.2375-3.0975-0.965-1.0775-2.0462-2.0638-2.9738-2.6625-0.51125-0.325-1.0125-0.595-1.505-0.81125l-0.03-0.0712c-0.32625-0.8575-0.40625-1.6875-0.2475-2.4962,0.12625-0.64375,0.40375-1.2788,0.82625-1.9088,0.605,0.6,1.0875,1.2738,1.47,1.9975,0.48,0.92125,0.80125,1.9412,0.99375,3.0425l1.0925,0.25625c0.59875-0.82,1.255-1.3538,1.97-1.63,0.54-0.2075,1.1238-0.27125,1.75-0.20125-0.1275,0.5425-0.30875,1.07-0.58,1.575-0.36375,0.67625-0.89875,1.3175-1.6912,1.9075l0.33875,1.0975c1.18,0.0575,2.175,0.37375,2.9962,0.9375h-0.001c0.68375,0.4725,1.2588,1.1225,1.7312,1.9388-0.95,0.40875-1.7838,0.54625-2.5338,0.48-0.4825-0.04-0.9375-0.16625-1.3688-0.35375m-14.211,7.4625c0.2075,0.2325,0.0688,0.69875-0.31375,1.0375-0.37875,0.3425-0.85875,0.43125-1.065,0.19625-0.20875-0.23-0.07-0.69625,0.3125-1.0388,0.38-0.33875,0.8575-0.42875,1.0662-0.195m0.4225-3.6925c0.2075,0.2325,0.0687,0.70125-0.31375,1.0412-0.37875,0.33875-0.8575,0.42875-1.065,0.195-0.20875-0.2325-0.0687-0.69875,0.3125-1.0412,0.38-0.33875,0.8575-0.425,1.0662-0.195m3.455,4.0175c0.20875,0.2325,0.0687,0.69875-0.3125,1.0375-0.38,0.3425-0.8575,0.42875-1.0662,0.19625-0.2075-0.23375-0.0687-0.7,0.31375-1.0388,0.38-0.3425,0.85875-0.42875,1.065-0.195m-2.5062-7.9688c0.2075,0.23375,0.0675,0.69625-0.3125,1.0388-0.38,0.34125-0.86,0.4275-1.0688,0.195-0.2075-0.2325-0.0675-0.69625,0.31375-1.0375,0.3825-0.34,0.8575-0.42875,1.0675-0.19625m3.265,3.6488c0.21,0.23375,0.07,0.69875-0.31,1.0388-0.3825,0.3425-0.86125,0.43125-1.0688,0.195-0.2075-0.23-0.0675-0.695,0.3125-1.0375,0.38125-0.34,0.85875-0.42875,1.0662-0.19625m3.5575,3.9775c0.21,0.23,0.0687,0.69625-0.3125,1.0375-0.38,0.3425-0.85625,0.42875-1.0662,0.19625-0.20875-0.23375-0.0675-0.69875,0.3125-1.0388,0.3825-0.33875,0.8575-0.4275,1.0662-0.195m0.4375-3.9112c0.20625,0.23375,0.0675,0.69875-0.31375,1.0412-0.38125,0.33875-0.86,0.42875-1.0662,0.19625-0.20875-0.23625-0.0687-0.7,0.31125-1.0388,0.38-0.3425,0.85875-0.43125,1.0688-0.19875m-3.4988-3.9075c0.2075,0.2325,0.07,0.69875-0.3125,1.0388-0.3825,0.34125-0.85875,0.4275-1.0688,0.195-0.2075-0.2325-0.0675-0.69625,0.31375-1.035,0.3825-0.3425,0.85875-0.43125,1.0675-0.19875m0.27375-3.6262c0.20625,0.2325,0.0688,0.69875-0.31375,1.0388-0.38,0.33875-0.85625,0.4275-1.065,0.195s-0.07-0.69875,0.31125-1.0375c0.38125-0.3425,0.85875-0.42875,1.0675-0.19625m3.4625,3.87c0.21,0.23375,0.0687,0.69625-0.3125,1.0388-0.38125,0.3425-0.85875,0.42875-1.0675,0.19875-0.20625-0.23625-0.0675-0.7025,0.31375-1.0412,0.38-0.3425,0.85875-0.42875,1.0662-0.19625m3.2938,3.6788c0.20875,0.2325,0.0675,0.69875-0.3125,1.0412-0.3825,0.33875-0.86,0.425-1.0675,0.195-0.2075-0.23625-0.07-0.70125,0.3125-1.0412,0.38-0.33875,0.85875-0.4275,1.0675-0.195m-4.48-7.255c-0.43-0.27625-0.85-0.4975-1.2562-0.6675-1.5025-0.62375-2.835-0.515-3.9888,0.075-1.2538,0.635-2.3575,1.8288-3.2838,3.275-0.6,0.94-1.1262,1.9812-1.5738,3.0538-1.0112,2.43-1.225,4.4888-0.7725,6.0362,0.18625,0.6325,0.4825,1.1762,0.87875,1.625,0.39875,0.44,0.90625,0.79625,1.5162,1.0488,1.4912,0.62125,3.5638,0.64125,6.0838-0.0975,1.11-0.3225,2.2062-0.73,3.2125-1.2275,1.5425-0.7625,2.85-1.7262,3.6212-2.8962,0.7125-1.0838,0.9675-2.395,0.50875-3.9625-0.1175-0.4175-0.2925-0.85375-0.5225-1.3225-0.3975-0.8-1.1212-1.7888-1.9438-2.7088-0.8225-0.92-1.7275-1.7488-2.48-2.2312"/>
</g>
</svg>
