<?xml version="1.0" encoding="UTF-8" standalone="no"?>
<!-- Created with Inkscape (http://www.inkscape.org/) -->
<svg id="svg3619" xmlns:rdf="http://www.w3.org/1999/02/22-rdf-syntax-ns#" xmlns="http://www.w3.org/2000/svg" viewBox="0 0 40.586 33.066" height="33.066" width="40.586" version="1.1" xmlns:cc="http://creativecommons.org/ns#" xmlns:dc="http://purl.org/dc/elements/1.1/">
<defs id="defs3621">
<clipPath id="clipPath494" clipPathUnits="userSpaceOnUse">
<path id="path496" d="M0,768,1024,768,1024,0,0,0,0,768z"/>
</clipPath>
</defs>
<metadata id="metadata3624">
<rdf:RDF>
<cc:Work rdf:about="">
<dc:format>image/svg+xml</dc:format>
<dc:type rdf:resource="http://purl.org/dc/dcmitype/StillImage"/>
<dc:title/>
</cc:Work>
</rdf:RDF>
</metadata>
<g id="layer1" transform="translate(-354.70695,-515.82935)">
<g id="g490" transform="matrix(1.25,0,0,-1.25,-755.99654,812.33347)">
<g id="g492" clip-path="url(#clipPath494)">
<g id="g498" transform="translate(902.1012,218.6259)">
<path id="path500" d="M0,0-0.039,0.236c-0.391-0.087-0.782-0.173-1.174-0.26,0.006-0.036,0.011-0.073,0.017-0.11,0.399,0.045,0.797,0.089,1.196,0.134m7.267-0.006c-0.015,0.079-0.03,0.157-0.045,0.235l-1.173-0.255c0.006-0.036,0.012-0.073,0.017-0.11,0.401,0.044,0.801,0.087,1.201,0.13m-4.843-0.005c0.404-0.053,0.853-0.234,1.182,0.24-0.394-0.08-0.788-0.16-1.182-0.24m-5.479,11.714c0.006-0.052,0.011-0.103,0.017-0.155,0.574,0.047,1.148,0.095,1.722,0.142,0,0.004-0.001,0.008-0.002,0.013h-1.737zm10.865-0.012c-1.055,0.179-1.654,0.136-1.938-0.142,0.674,0.049,1.306,0.095,1.938,0.142m-6.796-2.153c0.002-0.07,0.004-0.14,0.005-0.21,1.286,0,2.571-0.006,3.857,0.008,0.134,0.002,0.266,0.124,0.422,0.202h-4.284zm1.639-6.603,0-0.006c0.217,0,0.44-0.028,0.65,0.011,0.11,0.021,0.265,0.143,0.288,0.244,0.194,0.869-0.021,1.131-0.902,1.141-0.116,0.002-0.234,0.001-0.35-0.006-0.58-0.035-0.715-0.227-0.748-0.833-0.033-0.582,0.333-0.552,0.711-0.551h0.351m3.627-0.001c0.986-0.007,0.986-0.007,0.98,0.647-0.005,0.644-0.07,0.712-0.719,0.735-0.184,0.007-0.369,0.008-0.552,0-0.606-0.03-0.711-0.191-0.754-0.817s0.358-0.56,0.743-0.564c0.101-0.002,0.201-0.001,0.302-0.001m0.054,2.529,0,0.008c0.201,0,0.406-0.025,0.601,0.01,0.107,0.019,0.25,0.118,0.284,0.214,0.263,0.748-0.065,1.197-0.862,1.205-0.151,0.002-0.303,0.001-0.451-0.019-0.529-0.073-0.669-0.308-0.667-0.925,0.002-0.528,0.369-0.464,0.693-0.491,0.133-0.011,0.268-0.002,0.402-0.002m-3.685,0.004v0.006c0.217,0,0.437-0.022,0.649,0.01,0.106,0.016,0.254,0.112,0.286,0.205,0.269,0.775-0.051,1.21-0.877,1.212-0.183,0-0.37-0.003-0.547-0.041-0.436-0.093-0.601-0.397-0.575-0.91,0.023-0.462,0.336-0.469,0.663-0.481,0.134-0.005,0.267-0.001,0.401-0.001m3.672-5.133c0.951-0.007,1.028,0.08,0.931,0.906-0.041,0.348-0.211,0.511-0.545,0.518-0.267,0.006-0.536,0.02-0.799-0.01-0.533-0.061-0.668-0.298-0.669-0.913-0.001-0.523,0.355-0.475,0.682-0.499,0.133-0.01,0.267-0.002,0.4-0.002m-3.686,0.002c1.044-0.008,1.123,0.064,0.942,1.003-0.029,0.15-0.22,0.361-0.359,0.38-0.358,0.051-0.736,0.052-1.092-0.006-0.426-0.069-0.582-0.418-0.538-0.931,0.037-0.435,0.341-0.43,0.646-0.445,0.133-0.006,0.267-0.001,0.401-0.001m-3.673,2.598c1.034-0.01,1.011-0.009,1.021,0.73,0.007,0.479-0.184,0.675-0.649,0.649-0.233-0.013-0.467,0.01-0.699-0.006-0.539-0.037-0.685-0.265-0.716-0.867-0.031-0.578,0.357-0.485,0.693-0.505,0.116-0.006,0.233-0.001,0.35-0.001m0.049,2.534,0-0.002c0.133,0,0.267-0.003,0.4,0,0.285,0.008,0.565-0.029,0.573,0.418,0.014,0.779-0.032,0.935-0.519,0.99-0.295,0.033-0.603,0.033-0.896-0.011-0.49-0.073-0.665-0.385-0.645-0.954,0.017-0.507,0.398-0.394,0.687-0.438,0.13-0.02,0.266-0.003,0.4-0.003m0.024-5.131,0-0.004c0.117,0,0.234-0.007,0.35,0.002,0.267,0.021,0.58-0.069,0.598,0.392,0.031,0.796-0.027,0.968-0.542,1.017-0.312,0.03-0.638,0.028-0.945-0.029-0.444-0.084-0.603-0.417-0.572-0.962,0.028-0.471,0.387-0.372,0.661-0.412,0.147-0.022,0.3-0.004,0.45-0.004m3.68-8.212c-3.756,0.001-7.512,0-11.268,0.002-0.251,0-0.504,0.004-0.753,0.034-0.355,0.042-0.598,0.228-0.611,0.612-0.077,2.294-0.248,4.603,0.68,6.789,0.314,0.738,0.688,1.456,1.104,2.141,1.285,2.12,2.595,4.226,3.917,6.324,0.333,0.528,0.53,1.058,0.486,1.692-0.035,0.5-0.014,1.006,0.02,1.508,0.039,0.596,0.214,0.799,0.796,0.829,0.752,0.039,1.509,0.039,2.261,0.002,0.554-0.028,0.745-0.278,0.787-0.85,0.104-1.437,0.104-1.439,1.55-1.442,1.039-0.002,2.079,0.012,3.119-0.001,0.3-0.003,0.42,0.092,0.421,0.4,0.002,0.418,0.042,0.836,0.072,1.253,0.025,0.349,0.215,0.591,0.561,0.601,0.902,0.028,1.806,0.036,2.708,0.014,0.444-0.011,0.573-0.367,0.59-0.744,0.025-0.535,0.053-1.075,0.017-1.608-0.042-0.618,0.149-1.134,0.474-1.647,1.382-2.179,2.712-4.392,4.12-6.554,1.117-1.716,1.686-3.55,1.578-5.603-0.045-0.869-0.005-1.743-0.01-2.615-0.004-0.969-0.158-1.127-1.149-1.132-1.727-0.008-3.454-0.004-5.181-0.005h-6.289" fill-rule="nonzero" fill="#2c4c70"/>
</g>
<g id="g502" transform="translate(890.8574,234.4463)">
<path id="path504" d="M0,0c0.021-0.045,0.041-0.091,0.062-0.136,5.296,1.956,10.79,2.532,16.392,2.36-2.409,0.226-4.814,0.189-7.217-0.039-2.83-0.269-5.603-0.817-8.296-1.736-0.326-0.111-0.628-0.297-0.941-0.449m13.952,2.757c4.636-0.11,9.18-0.698,13.572-2.246,0.54-0.191,0.968-0.478,1.173-1.012,0.43-1.121,0.887-2.237,1.231-3.386,0.274-0.914-0.033-1.311-0.978-1.459-2.234-0.351-4.376,0.012-6.415,0.951-0.304,0.14-0.599,0.513-0.7,0.84-0.207,0.671-0.599,1.168-1.223,1.367-1.046,0.332-2.114,0.672-3.197,0.793-2.487,0.278-4.99,0.275-7.471-0.088-0.885-0.129-1.758-0.406-2.605-0.706-0.635-0.224-1.097-0.704-1.26-1.4-0.107-0.459-0.389-0.771-0.802-0.973-2.028-0.991-4.137-1.432-6.384-0.927-0.954,0.214-1.224,0.537-0.939,1.489,0.359,1.196,0.836,2.357,1.295,3.521,0.193,0.49,0.6,0.791,1.099,0.966,2.838,0.994,5.751,1.652,8.743,1.927,1.618,0.148,3.241,0.231,4.861,0.343" fill-rule="nonzero" fill="#2c4c70"/>
</g>
<g id="g506" transform="translate(917.2034,227.8196)">
<path id="path508" d="M0,0,2.757,0c-0.002,0.062-0.004,0.123-0.006,0.185-0.867-0.058-1.735-0.117-2.751-0.185m0.497-3.016c-0.93,0.183-1.887,0.282-2.784,0.567-1.339,0.423-2.125,1.566-2.167,2.902-0.024,0.773,0.257,1.003,0.978,0.715,1.714-0.684,3.487-0.903,5.315-0.773,0.383,0.027,0.765,0.09,1.148,0.107,0.589,0.027,0.851-0.199,0.841-0.796-0.025-1.471-0.514-2.339-2.008-2.514-0.431-0.05-0.865-0.08-1.297-0.119-0.009-0.029-0.018-0.059-0.026-0.089" fill-rule="nonzero" fill="#2c4c70"/>
</g>
<g id="g510" transform="translate(895.9852,228.4919)">
<path id="path512" d="M0,0c-1.482-0.324-2.965-0.649-4.411-0.965,1.53-0.09,3.013,0.235,4.411,0.965m-4.094-3.819c-0.442,0.049-1.013,0.078-1.57,0.183-1.021,0.192-1.62,0.936-1.725,2.068-0.123,1.334,0.043,1.469,1.366,1.226,1.94-0.357,3.831-0.173,5.659,0.589,0.108,0.045,0.212,0.099,0.322,0.139,0.589,0.213,0.9-0.007,0.912-0.639,0.025-1.403-0.795-2.624-2.125-3.101-0.437-0.157-0.902-0.252-1.362-0.329-0.445-0.073-0.899-0.086-1.477-0.136" fill-rule="nonzero" fill="#2c4c70"/>
</g>
<g id="g514" transform="translate(901.1361,218.9631)">
<path id="path516" d="m0,0c-0.15,0-0.303-0.018-0.45,0.004-0.274,0.04-0.633-0.06-0.66,0.412-0.032,0.545,0.128,0.878,0.571,0.962,0.307,0.057,0.633,0.059,0.945,0.029,0.515-0.049,0.573-0.221,0.542-1.018-0.018-0.46-0.331-0.37-0.598-0.391-0.116-0.01-0.233-0.002-0.35-0.002v0.004z" fill-rule="nonzero" fill="#FFF"/>
</g>
<g id="g518" transform="translate(901.1119,224.0935)">
<path id="path520" d="m0,0c-0.133,0-0.269-0.016-0.4,0.003-0.289,0.044-0.67-0.068-0.687,0.438-0.02,0.57,0.156,0.882,0.645,0.955,0.293,0.043,0.601,0.043,0.896,0.01,0.487-0.055,0.533-0.211,0.52-0.99-0.008-0.447-0.289-0.41-0.574-0.417-0.133-0.004-0.267-0.001-0.4-0.001v0.002z" fill-rule="nonzero" fill="#FFF"/>
</g>
<g id="g522" transform="translate(901.0627,221.5602)">
<path id="path524" d="m0,0c-0.117,0-0.233-0.006-0.35,0.001-0.336,0.019-0.723-0.073-0.693,0.505,0.032,0.602,0.177,0.83,0.716,0.867,0.232,0.016,0.467-0.007,0.699,0.006,0.465,0.025,0.657-0.171,0.65-0.65-0.011-0.739,0.013-0.739-1.022-0.729" fill-rule="nonzero" fill="#FFF"/>
</g>
<g id="g526" transform="translate(904.7361,218.9622)">
<path id="path528" d="M0,0c-0.134,0-0.267-0.005-0.401,0.001-0.305,0.015-0.609,0.009-0.646,0.445-0.043,0.512,0.112,0.862,0.538,0.931,0.357,0.058,0.734,0.057,1.092,0.006,0.139-0.019,0.33-0.23,0.359-0.38,0.181-0.939,0.102-1.012-0.942-1.003" fill-rule="nonzero" fill="#FFF"/>
</g>
<g id="g530" transform="translate(908.4224,218.9598)">
<path id="path532" d="m0,0c-0.133,0-0.267-0.008-0.4,0.002-0.327,0.024-0.683-0.024-0.682,0.499,0.001,0.615,0.136,0.852,0.668,0.913,0.264,0.03,0.533,0.016,0.799,0.01,0.335-0.006,0.504-0.17,0.546-0.518,0.097-0.826,0.02-0.912-0.931-0.906" fill-rule="nonzero" fill="#FFF"/>
</g>
<g id="g534" transform="translate(904.7499,224.0931)">
<path id="path536" d="m0,0c-0.133,0-0.267-0.004-0.4,0.001-0.327,0.011-0.641,0.018-0.664,0.481-0.025,0.513,0.139,0.817,0.575,0.91,0.178,0.037,0.365,0.041,0.547,0.041,0.826-0.002,1.146-0.437,0.877-1.212-0.032-0.093-0.18-0.189-0.286-0.205-0.212-0.032-0.432-0.01-0.649-0.01v-0.006" fill-rule="nonzero" fill="#FFF"/>
</g>
<g id="g538" transform="translate(908.4352,224.0894)">
<path id="path540" d="m0,0c-0.134,0-0.269-0.009-0.402,0.002-0.324,0.026-0.691-0.037-0.693,0.491-0.002,0.616,0.138,0.851,0.667,0.925,0.148,0.02,0.3,0.02,0.451,0.019,0.797-0.009,1.125-0.458,0.862-1.205-0.034-0.096-0.177-0.196-0.284-0.215-0.195-0.034-0.4-0.009-0.601-0.009v-0.008z" fill-rule="nonzero" fill="#FFF"/>
</g>
<g id="g542" transform="translate(908.3811,221.5603)">
<path id="path544" d="M0,0c-0.101,0-0.201-0.001-0.302,0-0.385,0.005-0.786-0.061-0.743,0.565,0.043,0.625,0.148,0.787,0.754,0.816,0.184,0.009,0.368,0.008,0.552,0.001,0.65-0.023,0.714-0.092,0.72-0.735,0.005-0.654,0.005-0.654-0.981-0.647" fill-rule="nonzero" fill="#FFF"/>
</g>
<g id="g546" transform="translate(904.7542,221.5606)">
<path id="path548" d="m0,0h-0.351c-0.378,0-0.744-0.03-0.711,0.551,0.033,0.606,0.168,0.798,0.747,0.834,0.117,0.007,0.234,0.007,0.351,0.006,0.881-0.011,1.096-0.273,0.902-1.142-0.023-0.101-0.178-0.223-0.288-0.243-0.21-0.039-0.433-0.012-0.65-0.012v0.006z" fill-rule="nonzero" fill="#FFF"/>
</g>
<g id="g550" transform="translate(903.1156,228.1638)">
<path id="path552" d="M0,0,4.284,0c-0.156-0.078-0.289-0.2-0.423-0.202-1.285-0.014-2.571-0.008-3.856-0.008-0.002,0.07-0.003,0.14-0.005,0.21" fill-rule="nonzero" fill="#FFF"/>
</g>
<g id="g554" transform="translate(909.9116,230.3166)">
<path id="path556" d="M0,0c-0.632-0.046-1.264-0.093-1.938-0.142,0.284,0.278,0.882,0.321,1.938,0.142" fill-rule="nonzero" fill="#FFF"/>
</g>
<g id="g558" transform="translate(899.0458,230.3286)">
<path id="path560" d="m0,0,1.738,0c0-0.004,0.001-0.008,0.002-0.013-0.574-0.047-1.148-0.094-1.722-0.142-0.006,0.052-0.012,0.103-0.018,0.155" fill-rule="nonzero" fill="#FFF"/>
</g>
<g id="g562" transform="translate(904.5251,218.6147)">
<path id="path564" d="M0,0c0.394,0.08,0.788,0.16,1.182,0.24-0.329-0.474-0.778-0.293-1.182-0.24" fill-rule="nonzero" fill="#FFF"/>
</g>
<g id="g566" transform="translate(909.3678,218.62)">
<path id="path568" d="m0,0c-0.4-0.043-0.8-0.086-1.2-0.13-0.006,0.037-0.012,0.074-0.017,0.11l1.172,0.255c0.015-0.078,0.03-0.157,0.045-0.235" fill-rule="nonzero" fill="#FFF"/>
</g>
<g id="g570" transform="translate(902.1012,218.6259)">
<path id="path572" d="m0,0c-0.399-0.045-0.797-0.089-1.196-0.134-0.006,0.037-0.011,0.074-0.017,0.11,0.392,0.087,0.783,0.173,1.174,0.26l0.039-0.236z" fill-rule="nonzero" fill="#FFF"/>
</g>
<g id="g574" transform="translate(890.8574,234.4463)">
<path id="path576" d="M0,0c0.313,0.152,0.615,0.338,0.941,0.449,2.693,0.919,5.466,1.467,8.296,1.736,2.403,0.228,4.808,0.265,7.217,0.039-5.602,0.172-11.096-0.404-16.392-2.36-0.021,0.045-0.041,0.091-0.062,0.136" fill-rule="nonzero" fill="#FFF"/>
</g>
<g id="g578" transform="translate(917.2034,227.8196)">
<path id="path580" d="M0,0c1.016,0.068,1.884,0.127,2.751,0.185,0.002-0.062,0.004-0.123,0.006-0.185h-2.757z" fill-rule="nonzero" fill="#FFF"/>
</g>
<g id="g582" transform="translate(895.9852,228.4919)">
<path id="path584" d="M0,0c-1.398-0.73-2.881-1.055-4.411-0.965,1.446,0.316,2.929,0.641,4.411,0.965" fill-rule="nonzero" fill="#FFF"/>
</g>
</g>
</g>
</g>
</svg>
