<?xml version="1.0" encoding="UTF-8" standalone="no"?>
<!-- Created with Inkscape (http://www.inkscape.org/) -->
<svg id="svg6727" xmlns:rdf="http://www.w3.org/1999/02/22-rdf-syntax-ns#" xmlns="http://www.w3.org/2000/svg" viewBox="0 0 91.688 96.625" height="96.625" width="91.688" version="1.1" xmlns:cc="http://creativecommons.org/ns#" xmlns:dc="http://purl.org/dc/elements/1.1/">
<metadata id="metadata6732">
<rdf:RDF>
<cc:Work rdf:about="">
<dc:format>image/svg+xml</dc:format>
<dc:type rdf:resource="http://purl.org/dc/dcmitype/StillImage"/>
<dc:title/>
</cc:Work>
</rdf:RDF>
</metadata>
<g id="layer1" transform="translate(-159.75,-946.1875)" stroke="#2c4c70" stroke-miterlimit="10" stroke-dasharray="none" fill="none">
<path id="path218" stroke-linejoin="miter" d="m200.12,1035.7c-21.702-2.6963-38.499-21.205-38.499-43.636,0-24.286,19.689-43.975,43.975-43.975s43.974,19.689,43.974,43.975c0,22.205-16.459,40.568-37.844,43.55" stroke-linecap="butt" stroke-width="3.75"/>
<path id="path222" stroke-linejoin="round" d="m192.91,1003.6,5.4025,0,0,7.51c0.40375,0.1937,0.51125,0.2837,0.62625,0.295,3.9788,0.405,3.9788,0.4037,3.9788-3.53v-4.0638h5.1575v7.3513c4.3812,0.9287,4.6762,0.7062,4.6762-3.325v-4.2213h5.1312c-0.1425,5.8838,0.965,11.836-2.01,17.388-1.6612,3.0988-3.4675,4.595-7.82,6.3238v14.225h-5.135c0-4.2075-0.0538-8.2987,0.0288-12.386,0.0288-1.3775-0.295-2.08-1.7075-2.6175-4.34-1.6512-6.7688-5.1975-7.4712-9.53-0.70625-4.3662-0.60125-8.865-0.8575-13.419z" stroke-linecap="round" stroke-width="2.5"/>
<path id="path226" stroke-linejoin="round" d="m205.51,953.97c16.089,9.9675,13.644,23.958,2.16,33.46,0.56-8.8262-0.045-17.519-1.5462-26.181-0.69625,8.8675-1.3925,17.734-2.1012,26.761-7.8988-3.7875-11.832-14.091-8.5862-21.619,1.8325-4.2525,6.1863-9.6362,10.074-12.421z" stroke-linecap="round" stroke-width="2.5"/>
<path id="path230" stroke-linejoin="round" d="m175.2,980.49c12.502-4.8125,25.048-0.5175,27.582,15.184-6.8575-4.045-13.876-8.185-20.894-12.326-0.11375,0.1788-0.22625,0.3563-0.34,0.535,6.5288,4.92,13.058,9.8413,19.821,14.939-12.669,3.7062-23.945-0.8113-26.17-18.331z" stroke-linecap="round" stroke-width="2.5"/>
<path id="path234" stroke-linejoin="round" d="m229.28,983.3c-7.055,4.16-14.11,8.32-21.029,12.4,2.4038-13.5,11.635-19.065,23.719-16.414,4.6888,1.0288,4.555-0.045,3.1025,5.2975-0.78,2.8737-2.05,5.7-3.57,8.2675-3.265,5.5175-8.5925,7.3012-14.688,7.1762-2.2338-0.045-4.4612-0.43122-6.6925-0.66122-0.0662-0.195-0.1325-0.39-0.19875-0.5838,3.2562-2.53,6.485-5.0975,9.7762-7.58,3.2875-2.4775,6.6375-4.87,9.9612-7.2987-0.1275-0.2013-0.25375-0.4025-0.38125-0.6038z" stroke-linecap="round" stroke-width="2.5"/>
</g>
</svg>
