<?xml version="1.0" encoding="UTF-8" standalone="no"?>
<!-- Created with Inkscape (http://www.inkscape.org/) -->
<svg id="svg6727" xmlns:rdf="http://www.w3.org/1999/02/22-rdf-syntax-ns#" xmlns="http://www.w3.org/2000/svg" viewBox="0 0 91.719 96.844" height="96.844" width="91.719" version="1.1" xmlns:cc="http://creativecommons.org/ns#" xmlns:dc="http://purl.org/dc/elements/1.1/">
<metadata id="metadata6732">
<rdf:RDF>
<cc:Work rdf:about="">
<dc:format>image/svg+xml</dc:format>
<dc:type rdf:resource="http://purl.org/dc/dcmitype/StillImage"/>
<dc:title/>
</cc:Work>
</rdf:RDF>
</metadata>
<g id="layer1" transform="translate(-221.0625,-900.625)" stroke="#2c4c70" stroke-miterlimit="10" stroke-dasharray="none" fill="none">
<path id="path238" stroke-linejoin="miter" d="m261.45,990.13c-21.702-2.6962-38.499-21.205-38.499-43.636,0-24.286,19.689-43.975,43.975-43.975s43.974,19.689,43.974,43.975c0,22.205-16.459,40.568-37.844,43.55" stroke-linecap="butt" stroke-width="3.75"/>
<path id="path242" stroke-linejoin="round" d="m253.87,958.27,5.4025,0,0,7.51c0.40376,0.19375,0.51125,0.28375,0.62625,0.295,3.9788,0.405,3.9788,0.40375,3.9788-3.53v-4.0638h5.1575v7.3512c4.3813,0.92875,4.6762,0.70625,4.6762-3.325v-4.2212h5.1312c-0.14249,5.8838,0.965,11.836-2.01,17.388-1.6612,3.0988-3.4675,4.595-7.82,6.3238v14.225h-5.135c0-4.2075-0.0538-8.2987,0.0287-12.386,0.0288-1.3775-0.29499-2.08-1.7075-2.6175-4.34-1.6512-6.7688-5.1975-7.4712-9.5312-0.70625-4.365-0.60125-8.8638-0.8575-13.418z" stroke-linecap="round" stroke-width="2.5"/>
<path id="path246" stroke-linejoin="round" d="m276.78,948.92c-1.565,0.37625-3.1325,0.74375-4.695,1.1288-2.9975,0.7375-5.9938,1.4775-8.985,2.2338-0.42375,0.1075-0.6725,0.0188-0.965-0.40625-1.6588-2.4125-3.345-4.8062-5.045-7.19-0.29375-0.41-0.59625-1.1212-1.1788-0.81625-0.59875,0.31375-0.22,0.97875-0.05,1.5,0.8325,2.535,1.68,5.065,2.5175,7.5988,0.0387,0.11875,0.0425,0.2475,0.075,0.44875-1.4138,0.3525-2.8112,0.70125-4.21,1.0475-5.6512,1.3988-11.302,2.7975-16.956,4.1888-0.315,0.0775-0.65,0.12125-0.9775,0.1025-0.91625-0.05-1.755-0.3975-2.1625-1.3712-0.42125-1.0062-0.10375-1.8812,0.59625-2.5,1.2638-1.115,2.5738-2.1712,3.8688-3.2475,1.8525-1.5375,3.7088-3.0712,5.5662-4.605,0.07-0.0575,0.16375-0.085,0.31625-0.16125,0.74125,1.0388,1.4875,2.0838,2.2312,3.13,0.0763,0.105,0.125,0.2675,0.21875,0.315,0.30875,0.1575,0.6325,0.2725,0.95,0.40375,0.0787-0.31375,0.2775-0.6475,0.21375-0.93875-0.1625-0.7525-0.43875-1.4875-0.675-2.2275-0.18125-0.5675-0.32125-1.155-0.57125-1.6925-0.28875-0.61875-0.145-0.94125,0.3125-1.3162,4.2875-3.5038,8.5512-7.0388,12.881-10.614,1.0012,1.42,1.9812,2.8075,2.9588,4.1962,0.925,1.3138,1.8425,2.6312,2.7738,3.94,0.27251,0.38375,0.64875,0.8725,1.0525,0.5275,0.22625-0.1925,0.28375-0.83375,0.16625-1.2025-0.9975-3.135-2.035-6.2575-3.1025-9.3712-0.24751-0.72125-0.26626-1.2038,0.37999-1.6125,1.215-0.76875,2.2838-1.8375,3.585-2.395,2.46-1.0512,5.0162-0.58,7.335,1.1512,4.0938,3.0562,6.2125,7.2312,6.25,12.342,0.0187,2.7262-1.0113,4.935-3.0838,6.4462-0.09,0.065-0.14501,0.18125-0.21625,0.27375-0.45876,0.23125-0.91625,0.46125-1.375,0.6925z" stroke-linecap="round" stroke-width="2.5"/>
<path id="path250" stroke-linejoin="round" d="m283.22,929.29c1.1737-0.91125,2.3488-1.8225,3.5225-2.7338,0.92251-0.7175,1.8438-1.4338,2.7625-2.155,0.59001-0.46125,1.2162-0.42,1.8638,0.0237,0.59375,0.40625,1.0888,1.4088,0.90874,2.005-0.0962,0.32-0.36125,0.6175-0.62875,0.8075-1.88,1.3375-3.7788,2.6438-5.6225,4.07,0.16625-0.0625,0.33751-0.11625,0.49876-0.19,3.13-1.4475,6.27-2.88,9.385-4.36,0.99124-0.47,1.6337-0.37875,2.3438,0.8775,0.59125,1.05,0.25374,2.2062-0.75,2.6112-2.8963,1.1675-5.81,2.2925-8.715,3.4362-0.46125,0.1825-0.91499,0.38125-1.3712,0.5725,0.0188,0.06,0.0387,0.12,0.0575,0.18125,1.23-0.12,2.46-0.24125,3.69-0.36,0.49374-0.0488,0.98624-0.0937,1.48-0.1375,1.0888-0.095,1.745,0.43,1.9238,1.5338,0.1875,1.17-0.42126,2.1075-1.4413,2.1512-2.1275,0.0925-4.2587,0.16-6.3887,0.23625-0.97001,0.0338-1.9425,0.05-2.91,0.1075-0.41125,0.0237-0.59375-0.1325-0.70875-0.5675-0.71875-2.7238-1.9762-5.1812-3.7825-7.3388-0.33875-0.40375-0.34875-0.64625-0.0813-1.025,1.035-1.4538,2.0325-2.9375,3.0575-4.4,0.76999-1.1,2.0075-0.97375,2.7525,0.25875,0.3675,0.605,0.39374,1.1575-0.0113,1.6812-0.56374,0.7325-1.1225,1.47-1.6787,2.2088-0.0937,0.125-0.16625,0.27-0.2475,0.40625,0.03,0.0325,0.0612,0.0662,0.0913,0.0987z" stroke-linecap="round" stroke-width="2.5"/>
</g>
</svg>
